<?xml version="1.0" encoding="utf-8"?>
<!-- Generator: Adobe Illustrator 23.0.1, SVG Export Plug-In . SVG Version: 6.00 Build 0)  -->
<svg version="1.1" xmlns="http://www.w3.org/2000/svg" xmlns:xlink="http://www.w3.org/1999/xlink" x="0px" y="0px"
	 viewBox="0 0 273 243.9" style="enable-background:new 0 0 273 243.9;" xml:space="preserve">
<style type="text/css">
	.st0{fill:#FAE81F;}
	.st1{fill:#C900AE;}
</style>
<g id="Layer_2">
	<circle class="st0" cx="140.8" cy="117.5" r="70.9"/>
</g>
<g id="Layer_1">
	<title>Emblem</title>
	<g>
		<path class="st1" d="M181.1,86.7c-1,1.7-1.5,3.6-1.5,5.6c-2.3,4.6-5.7,8.6-9.9,11.6c-0.9-1.9-2-3.7-3.3-5.4l-0.3-1.7l-1.4-1.6
			l0.5-0.6l1.1-1.6l0.8-0.7l1.6-2.1l1.5-1.8l2.3-2.5l0.3-0.4l-0.7,0.4l-1.4,1.3l-1.9,1.8l-1.4,1.1l-1.3,1l-1.1,1.2l-1.1,0.7
			l-0.7,0.6l-0.1-0.1c-1.2-1-2.5-1.7-4-2.2c0,0-3.7-2.8-5.5-3.4l2.5-2.5c3.5-1.7,6.5-4.2,9-7.2c0,0,5.1-3.3,7.8-4.6
			c4.2-1.8,8.6-3.4,13-4.8l2,0.7l0.7,3.4L181.1,86.7z"/>
		<path class="st1" d="M208.4,116.6l-2.7,2.7c-5,1.9-9.8,4-14.5,6.4c0,0-9.7,0.6-15.1,3.5l-5.3-0.3l2-5.4l0.1-4.9l1.6-0.1l1.9-0.4
			l1,0.1l2.7-0.4l2.4-0.2l3.4-0.1l0.5-0.1l-0.8-0.2l-1.9-0.2h-2.6l-1.8-0.2l-1.6-0.2l-1.6,0.1l-1.3-0.3l-2.1-0.2l-0.5-1l-0.4-5.2
			l-1.3-1.7v-2.9l2.8-0.4c1.3,0.6,2.7,1.1,4.1,1.2l1.3-0.6c5,0.6,10,1.7,14.9,3.1c0,0,4.2,3.7,8.3,3.7c2,0.7,3.9,1.5,5.8,2.4
			L208.4,116.6z"/>
		<path class="st1" d="M186.5,162l-1.4,2.4l-2.4,0.4c-3.1-1.2-6.2-2.2-9.3-3.1c-2.2-1-4.3-2.3-6.2-3.9c-4.2-4.4-10.9-8-10.9-8
			l-2.4-2.8c1.7-0.8,3.3-1.9,4.8-3.1h1l3.2-3l1,0.9l1.6,1.1l0.7,0.8l2.1,1.6l1.8,1.5l2.5,2.3l0.4,0.3l-0.4-0.7l-1.2-1.4l-1.8-1.9
			l-1.1-1.4l-1-1.3l-1.2-1.1l-0.7-1.2l-1-1.1l2.9-2.7l2.6-5.7c3.7,3.8,7.2,7.8,10.4,12c3,5.9,5.8,12.2,5.8,12.2
			C185.7,157.1,186.5,162,186.5,162z"/>
		<path class="st1" d="M152.3,78l-0.5,9l-4.7-1l-3.7-0.5l-1.3-0.2L142,84l-0.4-1.9v-1l-0.4-2.7l-0.2-2.4l-0.1-3.4l-0.1-0.5l-0.2,0.8
			v0.5l-0.1,0.2l-0.1,0.4l-0.2,1.6V80l-0.9,4.9c-1.7-0.1-3.4-0.1-5.1,0c-1.7,0.4-3.4,1-5,1.6c-0.1-4.6,0-9.4,0-9.4l1.2-3.1l1.1-8.3
			c3-4.1,5.2-8.7,6.6-13.6l2.2-1.9l1.3,0.3c2.3,5.3,7.4,12.2,7.4,12.2C149.4,68,150.6,73.1,152.3,78z"/>
		<path class="st1" d="M152.7,150.2c-0.1,2.7-0.4,5.5-1,8.1c-0.8,2.8-2,6.1-2,6.1s-1,4.6-1.7,9.4c-1.5,3.4-3.4,6.6-5.6,9.5l-3.1,1.1
			l-2.3-1.8c0,0-3.7-7.6-4.7-9.8l1.3-1.3l-0.1-0.9l-1.1-0.3c-0.7-2.9-1.7-5.7-3-8.4c0,0-0.1-3.5-0.4-7.7s-0.7-4.4-0.6-6.7l2.9,0.4
			l0.5,0.5c2.6,0.5,5.3,0.9,7.9,0.9l0.1,1.4l0.4,1.9l-0.1,1l0.4,2.7l0.2,2.4l0.1,3.4l0.1,0.5l0.2-0.8l0.1-1.9v-2.6l0.2-1.8l0.1-1.6
			l-0.1-1.6l0.3-1.3l0.1-1.4h1c7.7,0.2,9.1-1,9.1-1L152.7,150.2z"/>
		<path class="st1" d="M126.3,147.3c0,0-4.8,4.4-6.2,6.5l-10.5,6.4c0,0-8.5,2.5-14,4.1l-2.2,0.4l-1.5-2l1.4-4.5
			c0.9-4.1,2.4-8,4.4-11.7c0,0,3.7-4.8,5.7-7.6l0.3-1.5c1.8-2.3,3.8-4.4,5.9-6.5c1.1,2.9,2.9,5.5,5.3,7.5v0.6c0,0,0.5,0.6,1.5,1.5
			l-0.9,1.4l-0.8,0.7l-1.6,2.1l-1.5,1.8l-2.3,2.4l-0.3,0.4l0.7-0.4l1.4-1.2l1.9-1.8l1.4-1.1l1.3-1l1.1-1.2l1.2-0.7l0,0
			c0.7,0.6,1.6,1.3,2.6,2l1,0.4C123,145.5,124.6,146.4,126.3,147.3z"/>
		<path class="st1" d="M107.6,126l0.9,2.7c-5.5,1.6-17.3-1.6-17.3-1.6c-1.5-0.6-2.9-1.5-4-2.6h-3.8c-3.4-3.2-10.2-6.3-10.2-6.3
			l0.9-3.7l8.6-4.5c6.2-1,12.3-2.5,18.2-4.5l6.8-0.5l1.6,0.6l-1.6,5.8v5l-1.9,0.4l-1-0.1l-2.7,0.4l-2.3,0.3l-3.4,0.1l-0.5,0.1
			l0.8,0.2l1.9,0.2h2.6l1.8,0.2l1.6,0.2l1.6-0.1l1.3,0.3h0.2v1.4C107.6,123.2,107.6,126,107.6,126z"/>
		<path class="st1" d="M125.9,87l-1.9,2.2h-0.8l-4.1,2.9h-0.6c-0.2,0.2-0.5,0.5-0.8,0.8l-1.3-0.9l-0.7-0.8l-2.1-1.6l-1.8-1.5
			l-2.5-2.3l-0.4-0.3l0.4,0.7l1.2,1.4l1.8,1.9l1.1,1.4l1,1.3l1.2,1.1l0.7,1.2l0,0c-2.3,2.7-4.7,5.9-4.7,5.9v0.8l-1.7,2.7
			c-6.4-5.8-10.6-14.3-10.6-14.3s-2.3-7.7-2.7-9.9S93,74.1,93,74.1s-1.4-2.7,0-4.3s7.3,0.7,7.3,0.7c3.5,3.1,18.8,9.9,18.8,9.9
			C121.7,82.3,123.9,84.5,125.9,87z"/>
		<path class="st1" d="M152,67.1c0.5,3.5,1.2,6.9,2.2,10.3l0.7,1.4l-1,5.3l0.7,0.3c2.2-1.7,4.2-3.6,6.1-5.7l1.9-2.4
			c0,0,4-2.3,5.9-3.4v-3.3c0-1.1,0.2-2.1,0.6-3.1c0.6-1.4-0.4-7.3-0.4-7.3v-5.8c0,0-0.6-2.1-2.1-0.9s-5,5.5-7.5,7.4
			S152.6,66,152,67.1z"/>
		<path class="st1" d="M182.5,89.7c-0.2,0.9-0.3,1.8-0.3,2.6c0,0-2.1,6.3-7.3,9.9l0.7,1.1l2.2,0.3c0,0,3.6-0.9,13.3,1.6l0.8-0.3
			c1.9-1.8,3.9-3.3,6.2-4.6c1.8-2.9,3.8-5.7,5.9-8.4c1.8-2-2.7-1.7-2.7-1.7s-6.9-0.2-8.1-0.5S185.4,88.5,182.5,89.7z"/>
		<path class="st1" d="M121.5,79.4c1.1,0.2,4.4,3.1,4.4,3.1l0.4-0.6v-5.6l1.2-3.4l1.2-7c-3.1-2.6-6.6-8.3-6.6-8.3
			c-1.8-0.2-4-2.4-6.6-3.5s-2.7,2-2.7,2c-0.1,2.9-0.8,4.2-0.3,7.8c0.2,3.1,0.1,6.3-0.4,9.4C113.6,76.2,121.5,79.4,121.5,79.4z"/>
		<path class="st1" d="M84.5,101.3c1.4,1.9,3.1,3.5,5.1,4.7l10.3-3.2h4.6l0.4-0.6c-3.4-3.9-6.3-8.2-8.7-12.8l-0.4-0.9
			c-5.3,1.1-14.7,0.3-14.7,0.3c-1.5,0.4-3.7,1.7-3.9,3s1.9,4,2.5,5S82.5,98.4,84.5,101.3z"/>
		<path class="st1" d="M88.7,144c2.4,0.4,4.8,0.7,7.2,0.8l5.1-6.1l-0.2-2.1l3.8-4.4v-0.7l-1.1-0.2c-4.6,0-9.1-0.7-13.5-2
			c-2.7,2.3-6.2,5.7-9.4,7.8s-2.7,3.8-2.7,3.8c0.3,1.1,0.8,2.2,1.7,3.1C80.5,144.7,83.8,143.2,88.7,144z"/>
		<path class="st1" d="M129.1,168c-0.7-2.4-2.1-5.6-2.1-5.6c0.3-3.4-1.2-10.9-1.2-10.9l-1,0.2c-1.4,1.3-2.7,2.6-3.8,4.2l-9.7,6.4
			c0.9,4.3-0.3,13.6,0,16.2s3.2,2.1,6.2-0.5c3.2-2.6,6.5-5,9.9-7.2L129.1,168z"/>
		<path class="st1" d="M166.2,160.5c-4.1-4.4-11-8.1-11-8.1l-0.4,0.4c0.2,1.4,0.2,2.9,0,4.3c-0.3,2.2-2.5,7.6-2.5,7.6l-0.4,3.8
			c0,0,7.8,7,10.4,9.6s5.6,5.6,5.3,2.1s0.8-5.9,1.2-10.3c0.1-3-0.5-6-1.8-8.8L166.2,160.5z"/>
		<path class="st1" d="M198.7,136c-1.4-2.9-6.9-7.7-6.9-7.7H191c-5.3,0.7-10.5,1.8-15.6,3.4v0.6c2.4,2.2,6.4,8.5,6.4,8.5l2.5,3.7
			c2.3-0.2,9.4,0.5,13.3,0s5.8-1.2,5.6-2.4S200.2,138.9,198.7,136z"/>
		<path class="st1" d="M89.1,86.6c2.4,0.4,4.8,0.3,7.1-0.2L94.5,80c-1.7-0.7-3.5-0.9-5.3-0.5l-1.9,0.4v1.3l1.1,2.3L89.1,86.6z"/>
		<path class="st1" d="M102.8,69.6c2.6,2,7.1,3.1,7.1,3.1c0.3-2.4,0.4-4.8,0.3-7.3c-2.4-0.2-4.7-1-6.8-2.2c-1.4-0.8-1.2,0.8-1.2,0.8
			C102.5,65.8,102.7,67.7,102.8,69.6z"/>
		<path class="st1" d="M129.8,64.4c1.4-1.7,2.6-3.5,3.6-5.4c0,0-3.8-5.3-4.1-6.8c-0.3-1.4-1.7-0.6-1.8,0.7s-1.1,5.3-2.3,6.1
			C126.6,60.9,128.1,62.7,129.8,64.4z"/>
		<path class="st1" d="M151.3,64.1c1.4-1.5,2.9-2.9,4.5-4.2c0,0-0.6-4.4-0.7-6.8s-1.9-2.3-2.8-0.9s-3,4.1-4.1,5.5l2.6,4.2
			L151.3,64.1z"/>
		<path class="st1" d="M176.9,69.6c0,0-0.6-4,0.8-6.3c0,0,0.7-1.1,0-1.7c-0.4-0.5-1.2-0.5-1.6-0.1c0,0-0.1,0.1-0.1,0.1
			c-0.6,0.4-4.7,1-4.7,1s0.5,2.9,0,4c-0.7,1.7-0.9,3.6-0.6,5.4C172.7,71,174.8,70.2,176.9,69.6z"/>
		<path class="st1" d="M183.6,87c2.6-0.1,5.2,0,7.8,0.3c0.6-2.3,1.7-4.5,3.2-6.4c0.4-0.7,0.5-1.5,0.4-2.3c-2.5,0.7-5.1,1.1-7.8,1.2
			C185.9,82.1,184.7,84.5,183.6,87z"/>
		<path class="st1" d="M193.8,106.5l0.3,0.6c2.3,1.5,4.9,2.5,7.5,2.9c1.3-1,2.7-1.9,4.1-2.6c2.4-1.2,1.7-2.7,0.5-2.9
			s-5.9-0.7-7.4-1.5C197,103.8,195.3,105,193.8,106.5z"/>
		<path class="st1" d="M78.5,110l4-2.4c1.2-0.2,2.3-0.5,3.4-1l0.2-0.7c-0.9-0.7-1.7-1.5-2.3-2.5c-0.8-1.2-1.8-2.3-3-3.2
			c-3.3,2.1-5.6,2.1-6.2,2.6s-0.2,1.5-0.2,1.5C75.9,106.1,77.3,108,78.5,110z"/>
		<path class="st1" d="M80.6,134.2c1.4-1.5,6.6-5.9,6.6-5.9v-0.6c-0.4-0.4-0.7-0.8-1.1-1.2h-3.2c-0.7-0.6-1.8-1.3-1.8-1.3
			c-1.9,1.5-3.9,2.7-6.1,3.7c-0.4,0.5,0.1,1.5,0.1,1.5C77.8,131.2,80.6,134.2,80.6,134.2z"/>
		<path class="st1" d="M206.6,128.8c-1.8-1.4-3.5-3-5-4.8c-3.2,0.9-7.2,2.6-7.2,2.6c1.8,1.8,3.4,3.8,4.7,6c0,0,3.4-1.8,4.9-1.8
			S208.6,130.1,206.6,128.8z"/>
		<path class="st1" d="M95,146.6c-2.5,0-5-0.2-7.5-0.6c0,2.1-2.2,7.1-2.2,7.1c0.2,0.5,0.5,1,1,1.3c4.7-0.3,6.4-1.1,6.4-1.1
			C93.2,151,94,148.8,95,146.6z"/>
		<path class="st1" d="M194.4,146.7c-1.8,0.1-3.7,0.1-5.5,0c-1.2-0.1-2.3-0.1-3.5,0c0,0,0.9,3.3,2.1,6.8c0,0,1.3-0.5,3.4,0.7
			s2.6,1.3,3.4,1.3c0.4-0.2,0.8-0.5,0.9-1C195.3,154.5,193.9,149.3,194.4,146.7z"/>
		<path class="st1" d="M100.3,164.7c0,1.8-0.2,3.5-0.6,5.2c-0.3,0.8,0.6,3.1,2,2.2c1.2-0.6,2.5-0.9,3.9-0.8c1.4-0.3,2.7-0.9,4-1.6
			c0.1-2.4,0-4.7-0.3-7.1C106.3,163.1,103.3,163.8,100.3,164.7z"/>
		<path class="st1" d="M178,165.4c-1.4-0.5-2.9-1-4.4-1.3c-1-0.2-2-0.3-3.1-0.4c0,0,0.6,3.6,1,7.2c1.9,0.7,3.7,1.7,5.3,3
			c0,0,1.9,0.4,2.3,0c0.4-0.6,0.5-1.4,0.4-2.1C179.3,171.5,177.5,167.3,178,165.4z"/>
		<path class="st1" d="M128.7,172.3l-6,4.5c1.2,1.6,2,5.5,2.1,6.6s1.2,1.4,2.3,1.2s0-2.2,2.5-3.9c2.5-1.7,3-2.7,3-2.7l-3.2-6.6
			L128.7,172.3z"/>
		<path class="st1" d="M150,174.7c-0.6,1.7-1.3,3.3-2.1,4.9c1.9,1,4.1,3.8,4.9,4.4c0.7,0.6,1.8,0.4,2.4-0.3c0,0,0,0,0-0.1
			c0.5-0.8-0.5-2.1,0.3-4.1c0.5-1.2,0.9-2.4,1.2-3.6l-5.9-4.9C150.3,172.2,150.1,173.4,150,174.7z"/>
		<polygon class="st1" points="148.2,143.6 148.7,144.9 150,145.3 150.5,145 149.8,142.6 149.5,141.8 148.7,139.9 147.6,137.3 
			147.5,136.6 146.1,133.6 145.4,131.2 144,128.5 143.2,126.2 142.2,124.2 141.4,121.8 141.3,122.3 142.9,131.3 144,134.2 
			144.4,136.9 145,139.7 145.8,141.5 146.1,142.6 146.4,144.9 146.8,146 147.5,146 147.6,144.7 147.4,143.4 147.5,142.4 147.4,142 
			147.5,141.8 		"/>
		<path class="st1" d="M140.3,142.3l0.2,1.8c0,0,0.4,1.4,0.4,1.5c0.1,0.2,0.2,0.4,0.3,0.6h0.7l0.2-0.9v-1.1c0-0.1,0.1-1,0.1-1
			l0.6-0.7l0.4,0.8l0.8,1.7l0.6,1.1l0.6-0.1v-0.8l-0.3-1.4l0.1-1.5l-0.6-1.2l-0.3-1.7l-0.4-1.7l-0.3-2.2l-0.3-1.8l-0.7-1.9v-1
			l-0.7-2.6l-0.5-2.3l-0.5-3.4l-0.2-0.4l-0.2,0.8v1.9l0.2,2.6l-0.1,1.8v1.6l0.3,1.6l-0.2,1.4v2.2l-0.2,1.4l0.1,1.4l-0.1,1.9
			L140.3,142.3z"/>
		<path class="st1" d="M139.5,126.3l0.1-1.6v-2.3l-0.4,0.9l-0.2,1l-0.4,1.3v1.4c0,0.1-0.4,1.1-0.4,1.1l-0.2,2.1l-0.5,1.7l-0.6,2
			l-0.1,1.2c0,0-0.1,1.6-0.1,1.7s-0.4,1.7-0.4,1.8s-0.4,1.6-0.4,1.6s-0.1,1.1-0.1,1.3c-0.1,0.7-0.2,1.3-0.3,1.9
			c-0.1,0.2-0.3,1.9-0.3,1.9l0.5,0.7l0.9-0.3l0.4-1.1v-1.2l0.3-0.8l0.7,0.2v2.1l0.3,1.4l0.7-0.1l0.5-1.1l0.1-1.8l-0.2-1.5v-1.3
			l-0.1-1.3l0.2-1.5v-1.4l0.1-2.4l0.1-1.1v-1l-0.1-1.3l-0.1-1.2l0.2-1.7L139.5,126.3z"/>
		<path class="st1" d="M132.7,144.4l0.2,0.7h0.7l0.6-1.1l0.3-0.9l0.3-1.3l0.1-1.3l0.3-1.4l0.2-1l0.4-1.7l0.2-1.4
			c0,0,0.1-1.6,0.1-1.8s0.2-1.1,0.2-1.1l0.6-1.5l0.1-1.4l0.2-1.7l0.5-1.1l0.1-1.4l0.8-2.7l-0.3-0.1l-0.2,0.4l-0.5,1.1l-0.4,1
			l-0.6,1.3l-0.5,1.2l-0.4,0.9l-0.3,1.2l-0.5,1.4l-0.5,1.4l-0.6,1.2l-0.5,1.4l-0.6,1.4l-0.4,0.6l-0.6,0.9c0,0-0.5,1.4-0.6,1.5
			s-0.4,1-0.6,1.3c-0.1,0.3-0.2,0.5-0.2,0.8c0,0.1-0.8,1.6-0.9,1.8c-0.2,0.3-0.3,0.6-0.4,0.9l0.5,0.4l0.6-0.2
			c0.3-0.2,0.5-0.4,0.8-0.7c0-0.1,0.7-0.6,0.7-0.6l0.5-1l0.7-0.2c0,0,0.1,0.6,0.1,0.7s-0.1,1-0.1,1L132.7,144.4z"/>
		<path class="st1" d="M127.1,142.1l-0.1,1.1l0.3,0.7l0.8-0.3l0.4-1.3l0.6-0.8l0.5-1.4l0.8-1.6l0.8-1.8l0.8-1.7
			c0.1-0.1,0.7-1.2,0.7-1.2l0.5-1.6l0.7-1.7l0.6-1.5l0.5-1.5l0.5-1.1l0.3-1.2l0.8-1.7l0.7-1.5l-0.1-0.4l-0.1,0.1l-0.3,0.4l-0.4,0.6
			l-0.5,0.5l-0.9,1l-0.6,1l-0.6,1.2l-0.3,0.9l-0.7,0.8l-1.2,1.6l-0.8,1.2l-0.5,0.8l-0.5,1.2l-1.4,1.9c0,0-0.9,2-1,2.2
			c-0.2,0.3-0.4,0.6-0.7,0.9c-0.1,0.1-1,1.2-1.1,1.3c-0.2,0.3-0.5,0.6-0.7,0.9l-0.7,1.7l0.4,0.6l1-0.5l0.8-0.6l0.4-0.9
			c0.3-0.3,0.7-0.5,1.1-0.8c0.1,0,0.1,0.2,0.1,0.2l-0.1,0.8L127.1,142.1z"/>
		<path class="st1" d="M123,139.2l-0.9,0.8l0.1,0.8h0.6l0.5-0.5l0.6-0.7l0.7-0.4l0.6-0.7l1-1.4l0.8-1l0.5-0.9l0.4-0.7l0.3-0.7l1-0.8
			l0.6-1.2l0.6-1.2l1.5-2.1l0.5-1l0.5-0.9l0.6-1l0.7-0.7l0.7-1.5l0.8-0.7l0.7-0.9v-0.3l-0.1-0.4l-0.2,0.2l-0.2,0.3l-0.7,0.6
			l-0.7,0.9l-0.9,0.7l-1,1.3l-1,1.1l-0.8,0.5l-0.6,1l-0.7,0.6l-0.8,0.7l-0.7,0.6c-0.2,0.2-0.4,0.4-0.6,0.7c0,0.1-0.8,0.9-0.8,0.9
			l-1.7,1.4l-1.2,1.5l-1.4,0.9l-0.7,0.8c0,0-0.4,0.9-0.5,1l-0.8,0.8c0,0-0.5,0.9-0.6,1s0.4,0.4,0.5,0.4s0.5-0.1,0.5-0.1l1-0.8l0.9-1
			c0.3-0.1,0.6-0.3,0.9-0.4c0.1,0,0.1,0,0.2,0c0.1,0.2,0.2,0.4,0.3,0.7c0,0.2-0.1,0.4-0.2,0.6L123,139.2z"/>
		<path class="st1" d="M152.2,139.8l0.6,0.4l0.9,1.3l0.6,0.4l0.5,0.1l0.3-0.1l-0.1-0.6c-0.1-0.1-0.2-0.3-0.3-0.4
			c0-0.1-0.7-1.3-0.7-1.4c-0.1-0.2-0.2-0.4-0.3-0.7l-0.8-1.2l-0.7-1l-1-0.9l-0.3-0.9l-0.5-1.2l-0.7-0.9l-0.6-1l-0.5-1.1l-1.6-1.8
			l-0.7-1.5l-1.1-1.2l-0.6-0.9l-0.8-1.2l-0.9-1.5l-0.4-0.6l0,0.2v0.5l0.8,1.8l0.5,0.9l0.5,1.2l0.7,1.1l0.7,1.8l0.8,1.8l0.4,1.2
			l0.5,1.4l0.3,1l0.7,1.1v1l0.7,1.3l0.6,1.1l0.4,1l1,1.7l0.6,1.1l0.5,0.8l0.4-0.3l0.2-0.6l-0.4-0.8l-0.3-1l0.1-0.8L152.2,139.8z"/>
		<polygon class="st1" points="131.9,90.8 131.4,89.5 130.1,89.1 129.6,89.4 130.3,91.8 130.6,92.6 131.3,94.5 132.4,97.2 
			132.6,97.8 133.9,100.8 134.7,103.2 136,106 136.8,108.2 137.9,110.2 138.6,112.6 138.7,112.1 137.1,103.1 136.1,100.2 
			135.7,97.5 135,94.7 134.3,93 134,91.9 133.7,89.6 133.2,88.4 132.6,88.4 132.4,89.8 132.6,91 132.6,92 132.7,92.4 132.5,92.6 		
			"/>
		<path class="st1" d="M139.8,109.7v1.9l-0.2,0.8l-0.2-0.5l-0.5-3.4l-0.5-2.3l-0.7-2.6v-1l-0.7-1.9l-0.4-1.8l-0.3-2.2l-0.4-1.7
			l-0.3-1.7l-0.6-1.2l0.1-1.5l-0.3-1.4v-0.8l0.6-0.1l0.6,1.1l0.8,1.7l0.4,0.8l0.6-0.7c0,0,0.1-0.8,0.1-1v-1.1l0.2-0.9h0.7
			c0.1,0.2,0.2,0.4,0.3,0.6c0,0,0.1,0.4,0.2,0.8l0,0c0.1,0.4,0.2,0.7,0.2,0.7l0.2,1.8v1.6l-0.1,1.9l0.1,0.8l0.1,0.7l-0.2,1.5v2.2
			l-0.2,1.4l0.3,1.6v1.6l-0.1,1.8L139.8,109.7z"/>
		<path class="st1" d="M144.8,89.2c-0.1,0.6-0.1,1.3-0.3,1.9c-0.1,0.6-0.2,1.3-0.3,1.9c0,0.1-0.1,1.3-0.1,1.3s-0.4,1.5-0.4,1.6
			s-0.4,1.7-0.4,1.8s-0.1,1.7-0.1,1.7l-0.1,1.2l-0.6,2l-0.5,1.6l-0.2,2.1c0,0-0.4,1-0.4,1.1v1.4l-0.4,1.3l-0.2,1l-0.4,0.9v-2.3
			l0.1-1.6l-0.2-1.2l0.2-1.7l-0.1-1.2l-0.1-1.3v-1l0.1-1l0.1-2.4v-1.4l0.2-1.5l-0.1-1.3v-1.3l-0.2-1.5l0.1-1.8l0.5-1.1l0.7-0.1
			l0.3,1.4v2.2l0.6,0.2h0.1l0.3-0.8v-1.2l0.4-1.1l0.9-0.3L144.8,89.2z"/>
		<path class="st1" d="M147.4,90l-0.2-0.7h-0.7l-0.6,1.2l-0.3,0.8l-0.3,1.2l-0.1,1.3l-0.3,1.4l-0.2,1l-0.4,1.7l-0.2,1.4
			c0,0-0.1,1.6-0.1,1.8s-0.2,1.1-0.2,1.1l-0.6,1.5l-0.1,1.4l-0.2,1.7l-0.5,1.1l-0.1,1.4l-0.8,2.7l0.3,0.1l0.1-0.4l0.6-1.1l0.4-1
			l0.6-1.2l0.5-1.2l0.4-0.9l0.2-1.2l0.5-1.4l0.5-1.4l0.6-1.2l0.5-1.4l0.6-1.4l0.4-0.6l0.6-0.9c0,0,0.6-1.4,0.6-1.6s0.4-1,0.5-1.2
			c0.1-0.3,0.2-0.5,0.2-0.8c0-0.1,0.8-1.6,0.9-1.8c0.2-0.3,0.3-0.6,0.4-0.9l-0.5-0.4l-0.6,0.2c-0.3,0.2-0.5,0.4-0.8,0.7
			c0,0.1-0.7,0.6-0.7,0.6l-0.5,1l-0.7,0.2c0,0-0.1-0.6-0.1-0.7s0.1-1,0.1-1L147.4,90z"/>
		<path class="st1" d="M153,92.3l0.1-1.1l-0.3-0.7l-0.8,0.3l-0.4,1.3l-0.6,0.8l-0.5,1.3l-0.8,1.6l-0.8,1.8l-0.9,1.7
			c-0.1,0.1-0.7,1.2-0.7,1.2l-0.5,1.6l-0.7,1.7l-0.6,1.5l-0.5,1.5l-0.5,1.1l-0.3,1.2l-0.9,1.7l-0.7,1.5l0.1,0.4l0.1-0.1l0.3-0.4
			l0.4-0.6l0.5-0.5l0.9-1l0.6-1l0.6-1.2l0.3-0.9l0.7-0.8l1.2-1.6l0.8-1.2l0.5-0.8l0.5-1.2l1.5-1.8l1-2.2c0.2-0.3,0.4-0.6,0.7-0.9
			c0.1-0.1,1-1.2,1.1-1.3c0.2-0.3,0.5-0.6,0.6-0.9l0.8-1.7l-0.4-0.6l-1.1,0.5l-0.8,0.6l-0.4,0.9c-0.3,0.3-0.7,0.5-1.1,0.8
			c-0.1,0-0.1-0.2-0.1-0.2l0.1-0.8L153,92.3z"/>
		<path class="st1" d="M157.1,95.2l0.9-0.8l-0.1-0.8h-0.6l-0.5,0.5l-0.6,0.7l-0.7,0.4l-0.6,0.7l-1,1.4l-0.9,1l-0.5,0.9l-0.5,0.7
			l-0.3,0.7l-1,0.8l-0.6,1.2l-0.6,1.2l-1.4,2.1l-0.5,1l-0.5,0.9l-0.6,1l-0.7,0.7l-0.7,1.5l-0.8,0.7l-0.7,0.9v0.3v0.4l0.2-0.2
			l0.2-0.3l0.7-0.6l0.7-0.9l0.9-0.7l1-1.3l1-1l0.8-0.5l0.6-1l0.7-0.6l0.9-0.7l0.7-0.6c0.2-0.2,0.4-0.4,0.6-0.7
			c0-0.1,0.8-0.9,0.8-0.9l1.7-1.4l1.2-1.5l1.4-0.9l0.7-0.8c0,0,0.4-0.9,0.5-1l0.8-0.8c0,0,0.5-0.9,0.6-1s-0.4-0.4-0.5-0.5
			s-0.5,0.1-0.5,0.1l-1.1,0.8l-0.9,1c-0.3,0.1-0.6,0.3-0.9,0.4c-0.1,0-0.2,0-0.2,0c-0.1-0.2-0.2-0.4-0.3-0.7c0-0.2,0.1-0.4,0.2-0.6
			L157.1,95.2z"/>
		<path class="st1" d="M127.9,94.6l-0.6-0.4l-0.9-1.3l-0.6-0.4l-0.5-0.1l-0.3,0.1l0.1,0.6c0.1,0.1,0.2,0.3,0.3,0.4
			c0,0.1,0.7,1.3,0.7,1.4c0.1,0.2,0.2,0.4,0.3,0.7l0.8,1.2l0.7,1l1,0.9l0.3,0.8l0.5,1.2l0.7,0.9l0.6,1l0.5,1.1l1.6,1.8l0.7,1.5
			l1.1,1.2l0.6,0.9l0.8,1.2l0.9,1.5l0.4,0.6l0.1-0.1v-0.5l-0.8-1.8l-0.5-0.9l-0.5-1.2l-0.7-1.1l-0.6-1.8l-0.8-1.8l-0.4-1.2l-0.5-1.4
			l-0.3-1l-0.7-1.1v-1l-0.6-1.3l-0.7-1.1l-0.4-1l-1-1.7l-0.6-1.1l-0.5-0.8l-0.4,0.3l-0.2,0.6l0.3,0.8l0.3,1l-0.1,0.8L127.9,94.6z"/>
		<polygon class="st1" points="112.3,125.8 111.9,127.2 112.2,127.7 114.6,126.9 115.4,126.7 117.3,125.9 120,124.8 120.7,124.7 
			123.6,123.3 126.1,122.6 128.8,121.2 131,120.4 133,119.4 135.5,118.6 134.9,118.5 126,120.1 123.1,121.1 120.4,121.6 
			117.5,122.2 115.8,122.9 114.7,123.2 112.4,123.6 111.2,124 111.3,124.7 112.6,124.8 113.8,124.6 114.8,124.7 115.2,124.5 
			115.4,124.7 113.6,125.4 		"/>
		<path class="st1" d="M112.3,121.1l-1.1,0.6l0.1,0.6h0.8l1.4-0.3l1.5,0.1l1.2-0.6l1.7-0.3l1.7-0.3l2.2-0.3l1.8-0.4l1.8-0.7h1
			l2.6-0.7l2.3-0.5l3.4-0.5l0.5-0.2l-0.8-0.2h-1.9l-2.6,0.2l-1.8-0.1h-1.6l-1.6,0.3l-1.4-0.2h-2.2l-1.4-0.2l-1.4,0.1l-1.9-0.1h-1.6
			l-1.8,0.2c0,0-1.4,0.4-1.5,0.4c-0.2,0.1-0.4,0.2-0.6,0.3v0.7l0.9,0.2h1.1c0.1,0,1,0.1,1,0.1l0.7,0.6l-0.8,0.4L112.3,121.1z"/>
		<path class="st1" d="M112.4,115.2l-1.4,0.3l0.1,0.7l1.1,0.5l1.8,0.1l1.5-0.2h1.3l1.3-0.1l1.5,0.2h1.4l2.4,0.1l1,0.1h1l1.3-0.1
			l1.2-0.1l1.7,0.2l1.2-0.2l1.6,0.1h2.3l-0.9-0.4l-1-0.2l-1.3-0.4h-1.4c-0.1,0-1.1-0.4-1.1-0.4l-2.1-0.2l-1.7-0.5l-2-0.6l-1.2-0.1
			l-1.7-0.1c-0.1,0-1.7-0.4-1.8-0.4l-1.6-0.4l-1.3-0.1c-0.7-0.1-1.3-0.2-2-0.3c-0.2-0.1-1.9-0.3-1.9-0.3l-0.7,0.5l0.3,0.9l1,0.4h1.2
			l0.8,0.3l-0.2,0.7L112.4,115.2z"/>
		<path class="st1" d="M114,109.9h-1.2l-0.7,0.2v0.7l1.2,0.6l0.8,0.3l1.2,0.3l1.3,0.1l1.4,0.3l1,0.2l1.7,0.4l1.4,0.2
			c0,0,1.6,0.1,1.8,0.1l1.1,0.2l1.5,0.6l1.4,0.1l1.7,0.2l1.1,0.5l1.4,0.1l2.7,0.8l0.1-0.3l-0.5-0.1l-1.1-0.6l-1-0.4l-1.2-0.6
			l-1.2-0.5L129,113l-1.2-0.2l-1.4-0.5l-1.4-0.5l-1.1-0.7l-1.4-0.5l-1.4-0.6l-0.6-0.4l-0.9-0.6c0,0-1.5-0.5-1.6-0.6s-1-0.4-1.2-0.6
			c-0.3-0.1-0.5-0.2-0.8-0.2c-0.1,0-1.6-0.8-1.8-0.9c-0.3-0.2-0.6-0.3-0.9-0.4l-0.4,0.5l0.2,0.6c0,0,0.6,0.8,0.7,0.8
			s0.6,0.7,0.6,0.7l1,0.5l0.2,0.7c0,0-0.6,0.1-0.7,0.1S114,109.9,114,109.9z"/>
		<path class="st1" d="M117.3,105.3l-0.8-0.1l-1.4-0.9l-1.1-0.1l-0.7,0.3l0.3,0.8l1.3,0.4l0.7,0.6l1.4,0.5l1.6,0.8l1.8,0.8l1.7,0.9
			c0.1,0.1,1.2,0.7,1.2,0.7l1.6,0.6l1.7,0.7l1.5,0.6l1.5,0.5l1.1,0.5l1.2,0.3l1.7,0.9l1.5,0.7l0.4-0.1l-0.1-0.1l-0.4-0.3l-0.6-0.4
			l-0.5-0.5l-1-0.9l-1-0.6l-1.2-0.6l-0.9-0.3l-0.8-0.7l-1.6-1.2l-1.2-0.8l-0.8-0.5l-1.2-0.5l-1.8-1.5l-2.2-1
			c-0.3-0.2-0.6-0.4-0.9-0.7c-0.1-0.1-1.2-1-1.3-1.1c-0.3-0.2-0.6-0.5-0.9-0.6l-1.7-0.8l-0.6,0.4l0.5,1.1l0.6,0.8l0.9,0.4
			c0.3,0.3,0.5,0.7,0.8,1.1C117.5,105.3,117.3,105.3,117.3,105.3z"/>
		<path class="st1" d="M119.7,101.3c-0.2,0.1-0.6-0.2-0.6-0.2l-1.1-0.9l-0.8-0.9l-0.8,0.1v0.6l0.5,0.5l0.7,0.6l0.4,0.7l0.7,0.6
			l1.4,1l1,0.9l0.9,0.5l0.7,0.4l0.7,0.3l0.8,1l1.2,0.6l1.2,0.6l2.1,1.4l1,0.5l0.9,0.5l1,0.6l0.7,0.7l1.5,0.7l0.7,0.8l0.9,0.7h0.3
			h0.4l-0.2-0.3l-0.3-0.2l-0.6-0.7l-0.9-0.7l-0.7-0.9l-1.3-1l-1-1l-0.6-0.8l-1-0.6l-0.6-0.7l-0.7-0.9l-0.6-0.6
			c-0.2-0.2-0.4-0.4-0.7-0.6c-0.1,0-0.9-0.8-0.9-0.8l-1.5-1.7l-1.4-1.1l-0.9-1.4l-0.8-0.7c0,0-0.9-0.5-1-0.5l-0.8-0.8
			c0,0-0.9-0.5-1-0.6s-0.4,0.4-0.5,0.5s0.1,0.5,0.1,0.5l0.8,1.1l1,0.9c0.1,0.3,0.3,0.6,0.4,0.9c0,0.1,0,0.2,0,0.2
			C120.4,101.1,119.9,101.2,119.7,101.3z"/>
		<path class="st1" d="M115.8,130.9l-0.4,0.6l-0.1,0.5l0.1,0.3l0.6-0.1c0.1-0.1,0.3-0.2,0.4-0.3c0.1,0,1.3-0.7,1.4-0.7
			c0.2-0.1,0.4-0.2,0.7-0.3l1.2-0.8l1-0.7l0.9-1l0.8-0.3l1.2-0.5l0.9-0.7l1-0.6l1.1-0.5l1.7-1.6l1.5-0.7l1.2-1.1l0.9-0.6l1.2-0.8
			l1.5-0.9l0.6-0.4l-0.2-0.1h-0.5l-1.8,0.8l-0.9,0.5l-1.2,0.5l-1.1,0.7l-1.8,0.7l-1.8,0.8l-1.2,0.4l-1.4,0.5l-1,0.3l-1.1,0.7h-1
			l-1.3,0.7l-1.1,0.7l-1,0.4l-1.6,1l-1.1,0.6l-0.8,0.5l0.3,0.4l0.6,0.2l0.8-0.4l1-0.3l0.8,0.1l0.5,0.4l-0.4,0.6L115.8,130.9z"/>
		<polygon class="st1" points="167.7,108.6 168.2,107.3 167.9,106.7 165.4,107.5 164.6,107.8 162.7,108.5 160.1,109.6 159.4,109.7 
			156.4,111.1 154,111.8 151.3,113.2 149.1,114 147,115 144.6,115.8 145.2,115.9 154.1,114.3 157,113.3 159.7,112.9 162.6,112.2 
			164.3,111.5 165.4,111.2 167.7,110.9 168.8,110.4 168.8,109.7 167.5,109.6 166.2,109.8 165.3,109.7 164.8,109.9 164.6,109.7 
			166.5,109.1 		"/>
		<path class="st1" d="M167.8,113.3l1.1-0.6l-0.1-0.6H168l-1.4,0.3H165l-1.2,0.6l-1.6,0.3l-1.7,0.4l-2.2,0.3l-1.8,0.4l-1.9,0.7h-1
			l-2.6,0.7l-2.3,0.5l-3.4,0.5l-0.5,0.2l0.8,0.2h1.9l2.6-0.2l1.8,0.1h1.6l1.6-0.3l1.4,0.2h2.2l1.4,0.2l1.4-0.1l1.9,0.1h1.6l1.8-0.2
			c0,0,1.4-0.4,1.5-0.4c0.2-0.1,0.4-0.2,0.6-0.3v-0.7l-0.9-0.2H167c-0.1,0-1-0.1-1-0.1l-0.7-0.6l0.8-0.4L167.8,113.3z"/>
		<path class="st1" d="M167.7,119.2l1.4-0.3l-0.1-0.7l-1.1-0.5l-1.8-0.1l-1.5,0.2h-1.3l-1.3,0.1l-1.5-0.2H159l-2.4-0.1l-1-0.1h-1
			l-1.3,0.1l-1.2,0.1l-1.7-0.2l-1.2,0.2l-1.6-0.1h-2.3l0.9,0.4l1,0.2l1.3,0.4h1.4c0.1,0,1.1,0.4,1.1,0.4l2.1,0.2l1.7,0.5l2,0.6
			l1.2,0.1l1.7,0.1c0.1,0,1.7,0.4,1.8,0.4l1.6,0.4l1.3,0.1c0.7,0.1,1.3,0.2,1.9,0.3c0.6,0.1,1.2,0.2,1.9,0.3l0.7-0.5l-0.3-0.9
			l-1.1-0.4h-1.2l-0.9-0.3l0.2-0.7H167.7z"/>
		<path class="st1" d="M166.1,124.5h1.1l0.7-0.2v-0.7l-1.2-0.6l-0.8-0.3l-1.3-0.3l-1.3-0.1L162,122l-1-0.2l-1.7-0.4l-1.4-0.2
			c0,0-1.6-0.1-1.8-0.1l-1.1-0.2l-1.5-0.6l-1.4-0.2l-1.7-0.2l-1.1-0.5l-1.4-0.1l-2.7-0.8l-0.1,0.3l0.5,0.1l1.1,0.6l1,0.4l1.3,0.6
			l1.2,0.5l0.9,0.4l1.2,0.2l1.4,0.5l1.4,0.5l1.2,0.6l1.4,0.5l1.4,0.6l0.6,0.4l0.9,0.6c0,0,1.5,0.6,1.6,0.6s1,0.4,1.3,0.6
			c0.3,0.1,0.5,0.2,0.8,0.2c0.1,0,1.6,0.8,1.8,0.9c0.3,0.2,0.6,0.3,0.9,0.4l0.4-0.5l-0.2-0.6c-0.2-0.3-0.4-0.5-0.7-0.8
			c-0.1,0-0.6-0.7-0.6-0.7l-1-0.5l-0.2-0.7c0,0,0.6-0.1,0.7-0.1S166.1,124.5,166.1,124.5z"/>
		<path class="st1" d="M162.7,129.2l0.8,0.1l1.4,0.9l1.1,0.1l0.7-0.3l-0.3-0.8l-1.3-0.4l-0.8-0.6l-1.4-0.5l-1.6-0.8l-1.8-0.8
			l-1.7-0.9l-1.2-0.7l-1.6-0.5l-1.7-0.7l-1.5-0.6l-1.5-0.5l-1.1-0.5l-1.2-0.3l-1.7-0.9l-1.5-0.7l-0.4,0.1l0.1,0.1l0.4,0.3l0.6,0.4
			l0.5,0.5l1,0.9l1,0.6l1.2,0.6l0.9,0.3l0.8,0.7l1.6,1.2l1.2,0.8l0.8,0.5l1.2,0.6l1.8,1.4l2.2,1c0.3,0.2,0.6,0.4,0.9,0.7
			c0.1,0.1,1.2,1,1.3,1.1c0.3,0.2,0.6,0.5,0.9,0.6l1.7,0.8l0.6-0.4l-0.5-1l-0.6-0.8l-0.9-0.4c-0.3-0.3-0.5-0.7-0.8-1.1
			C162.6,129.2,162.7,129.2,162.7,129.2z"/>
		<path class="st1" d="M160.4,133.2c0.2,0,0.4,0.1,0.6,0.2l1.1,0.9l0.8,0.9l0.8-0.1v-0.6L163,134l-0.7-0.6l-0.4-0.7l-0.7-0.6l-1.4-1
			l-1-0.9l-0.9-0.5l-0.7-0.5l-0.7-0.3l-0.8-1l-1.2-0.6l-1.2-0.6l-2.1-1.4l-1-0.5l-0.9-0.5l-1-0.6l-0.7-0.7l-1.5-0.7l-0.7-0.8
			l-0.9-0.7h-0.3h-0.4l0.2,0.2l0.3,0.2l0.6,0.7l0.9,0.7l0.7,0.9l1.3,1l1,1l0.5,0.8l1,0.6l0.6,0.7l0.7,0.9l0.6,0.7
			c0.2,0.2,0.4,0.4,0.7,0.6c0.1,0,0.9,0.8,0.9,0.8l1.4,1.7l1.5,1.2l0.9,1.4l0.8,0.7c0,0,0.9,0.5,1,0.5l0.8,0.8c0,0,0.9,0.5,1,0.6
			s0.4-0.4,0.4-0.5s-0.1-0.5-0.1-0.5l-0.8-1l-1-0.9c-0.1-0.3-0.3-0.6-0.4-0.9c0-0.1,0-0.2,0-0.2
			C159.8,133.3,160.1,133.2,160.4,133.2z"/>
		<path class="st1" d="M164.3,103.6l0.4-0.6l0.1-0.5l-0.1-0.3l-0.6,0.1c-0.1,0.1-0.3,0.2-0.4,0.4c-0.1,0-1.3,0.7-1.4,0.7
			c-0.2,0.1-0.4,0.2-0.6,0.3l-1.2,0.8l-1,0.7l-0.9,1l-0.9,0.3l-1.2,0.5l-0.9,0.7l-1,0.6l-1.1,0.5l-1.8,1.6l-1.5,0.7l-1.2,1.1
			l-0.9,0.6l-1.2,0.8l-1.5,0.9l-0.6,0.4l0.2,0.1h0.5l1.8-0.8l0.9-0.5l1.2-0.5l1.1-0.7l1.8-0.7l1.8-0.8l1.2-0.4l1.4-0.5l1-0.3
			l1.1-0.7h1l1.3-0.7l1.1-0.7l1-0.4l1.7-1l1.1-0.6l0.8-0.5l-0.3-0.4l-0.6-0.2l-0.8,0.3l-1,0.4l-0.8-0.1l-0.5-0.4l0.4-0.6
			L164.3,103.6z"/>
		<path class="st1" d="M160.6,99.7c0.1-0.1,0.6-0.8,0.6-0.8l0.8-1l0.1-0.4l-0.4-0.6h-0.6l-0.9,0.8c0,0-0.9,0.9-0.9,1
			s-0.9,1.3-0.9,1.3l-1.6,1.1l-1,0.9l-1.1,1.4l-0.9,0.7l-1.1,1.1l-0.4,0.8l-0.9,0.8l-1.1,0.7l-0.6,1.1l-0.8,1.1l-1.1,0.7l-0.9,1
			l-1,0.7l-0.7,0.9l-0.5,0.5l-0.2,0.3h0.3l1.6-0.8c0,0,1.2-0.7,1.3-0.7s0.8-0.7,0.9-0.7l1.1-0.6l1.1-0.9l1.3-0.9l0.9-0.9l1.2-0.6
			l0.9-0.8l1.6-1l1.3-0.8l1-0.6l1.4-0.7l0.6-0.8c0-0.1,1.3-0.9,1.3-0.9l0.8-0.8l0.6-0.4l0.1-0.7l-0.2-0.5l-1-0.1l-1,1.3l-1.2,0.7
			l-0.9-0.5l0.3-0.5C159.7,100.4,160.5,99.8,160.6,99.7z"/>
		<path class="st1" d="M122.3,96.6l-1-0.8l-0.4-0.7l-0.5-0.2l-0.6,0.3L120,96l0.3,0.9l1.3,1.2l1,1.1l0.8,1.1l1.6,1.1l0.6,1.2
			l1.9,1.7l0.8,1l1.3,1.2l0.6,0.5l1.2,1.1l0.7,0.6l1.1,1.2l1.2,0.9l0.9,1.4l0.8,0.8l0.4-0.2l-0.7-1.2l-0.8-1.5
			c-0.3-0.3-0.5-0.7-0.7-1c0-0.1-1-1.1-1.1-1.3s-0.9-1.3-0.9-1.3l-0.8-1.1l-1.1-1.3l-0.5-1.6l-1.1-1.4l-1.6-2.1l-1-1.2
			c-0.3-0.3-0.6-0.7-0.9-1.1c0-0.1-0.3-1-0.3-1l-0.8-1.3l-0.7-0.7l-0.8-0.4l-0.5,0.3v0.8l0.7,0.7l0.4,1l-0.6,0.5L122.3,96.6z"/>
		<path class="st1" d="M157.2,137.3l1.6,1.3l0.3,0.5l0.5-0.2l0.2-0.6c0,0-0.4-0.5-0.5-0.6s-0.6-0.9-0.6-0.9l-0.8-0.9l-0.7-1l-1.2-1
			l-1.3-1.1l-0.8-1l-0.5-0.7l-0.9-0.9l-1.7-1.5l-1.4-1.4l-0.7-1l-1.2-0.9l-0.9-0.9l-0.8-1l-1-1.1l-0.5-0.6l-0.7-0.3l0.8,1.4l0.8,1
			l0.7,1.3l0.7,1.1l0.7,0.9l1.1,1.5l0.5,1l1,1.5l1,1.4l0.8,0.9l0.6,1.3l0.7,1.1l1.5,2l0.9,1.6l1,1l0.9,0.2c0,0,0.3-0.3,0.3-0.3
			s0.1-0.5,0.1-0.5c-0.2-0.2-0.4-0.4-0.6-0.6c-0.1,0-0.6-0.4-0.7-0.6s-0.2-0.6-0.2-0.6v-0.6L157.2,137.3z"/>
		<path class="st1" d="M118.8,135.5c-0.1,0.1-0.8,0.6-0.8,0.6l-0.1,0.6l0.6,0.2l1.2-0.6l0.6-0.7l1.2-0.9l1-0.7l1-1.1l1.3-1l2-1.9
			l0.9-0.9l0.9-0.9l1-0.8l0.7-1.3l1.2-0.8l1-1.5l1.4-1l1.5-1.4l0.4-0.7l-0.6,0.3l-0.7,0.6l-1.1,0.6l-0.7,0.7l-1.4,0.7l-0.3,0.5
			l-1,0.5L129,125l-0.8,0.7l-1.4,0.8l-1.1,0.9l-1,0.6l-0.9,0.6l-1.6,0.8l-0.9,0.7l-0.6,0.8l-1.1,0.8c0,0-1.7,0.9-1.8,0.9
			s-1,0.4-1,0.4l-0.5,0.8l-0.3,0.5l0.7,0.3l0.7-0.1l0.8-0.4l1-0.5l0.8-0.1c0.1,0.2,0.2,0.3,0.3,0.5c-0.1,0.2-0.2,0.4-0.3,0.5
			C120.1,134.5,118.9,135.4,118.8,135.5z"/>
	</g>
</g>
</svg>
