<svg xmlns="http://www.w3.org/2000/svg" viewBox="0 0 273 243.94"><defs><style>.cls-1{fill:#f59b00;}.cls-2{fill:#fad900;}.cls-3{fill:#fae81f;}.cls-4{fill:#fff899;}.cls-5{fill:#c900ae;}</style></defs><title>Emblem</title><g id="Layer_2" data-name="Layer 2"><path class="cls-1" d="M131.61,10.32S128.5,31,112,40.38L110,47.85s5.3,8.57-1.94,15.11c0,0-11.92,12.62-17.91,20.4L85.9,86.17S83.72,80,80.61,77.06,69,74.1,66.9,61.33a34,34,0,0,0-5.06,12.61s5.53,6.46,6.39,9.81l-.78,15a214,214,0,0,0-9.89,26.4s1.71,14.33-4.05,39.87c0,0,9.66,10.52,14.17,14.1s10.83,12.54,16.43,29c0,0,9.5,4.51,23.29,19.78a214.57,214.57,0,0,0,43.68,1.63s25.39-8.95,37.93-13.94c0,0,8.33-26.63,34.49-52.09a84.21,84.21,0,0,1-3.81-37.23s-8.41-9-11-15.18a175.4,175.4,0,0,1,2.72-24.69s-6.3-10.35-4.82-27.56c0,0-4.75,5.53-8.41,9.34l-.78,2.18.31,1a18.54,18.54,0,0,1-4.21,5.84l-5-5.37a90.21,90.21,0,0,1-23.75-4.83s-2.34-4.59-12.46-9a46.37,46.37,0,0,1-16-11.6s.54-8.41,4.75-14.49A50.8,50.8,0,0,0,131.61,10.32Z"/><path class="cls-2" d="M66.2,68.65s5,7.4,12.75,11a49.63,49.63,0,0,1,4.38,12.68,44.89,44.89,0,0,0,9.43-6.26s8.08-13.36,17.06-21.36c0,0,.76,2,2.12.38s-.38-2.19-.38-2.19a22.13,22.13,0,0,0,2.34-14.49l3.24-8.16s12-9.36,15.86-21.36c0,0,3.54,4.61,3.85,13.36,0,0-3.55,10.34-3.4,15.63a88.1,88.1,0,0,0,17,14.19c10.19,6.49,14.27,7.7,17.59,11.39,0,0,12.38,2.57,20.08,3.4a11.73,11.73,0,0,1,5.28,5.21l2-3.85a4.43,4.43,0,0,0,4-1.66A2.5,2.5,0,0,0,199,73l1.66-1.51s2.18-1.28,2.34-4.83a56.76,56.76,0,0,0,4.9,18.65s-2.64,14.71-3,24.6c0,0,3,8.23,12,16.61a90,90,0,0,0,3.63,35s-20.61,19.17-33.14,51c0,0-22.34,9.88-41.14,14.56a167.6,167.6,0,0,1-37.13-2s-5.89-8.07-22.57-18.94c0,0-5.51-16.68-13.36-26.49A85.39,85.39,0,0,0,57,164.14a124.41,124.41,0,0,0,3.24-22.65s4.15-9.81,1.66-17.74a95.13,95.13,0,0,1,9-23.32s2.26,1.36,2.64-.45-1.29-3-1.89-2.64l1.13-13.51s-4.07-5.06-7.17-9.44A27.32,27.32,0,0,1,66.2,68.65Z"/><path class="cls-3" d="M129.66,41.33A38.1,38.1,0,0,1,120.21,52s3.35,8.61-2.75,19.15S99.38,91.35,99.38,91.35,94.24,100,86.7,100.81c0,0-6.7,1.19-7.66-2l-.84,4.67v1.67a132.23,132.23,0,0,0-10.65,27.17S68,148.44,65,162.56c0,0,12.92,13.52,26.45,42.61A137.09,137.09,0,0,1,111.83,223a240.5,240.5,0,0,0,34.47,2.39s27-9.81,37.94-15.2c0,0,11.6-27.28,30.15-46.31A115.63,115.63,0,0,1,211.52,133s-8.5-8.74-11.25-16a75.9,75.9,0,0,1,3-25.13l-1.79-5.62s-2.75,3.59-5,4.54l-6.1.48-3.71-4.79s-12.93-2.27-20-3.82l-2.87-4s-26.93-12-34.59-24.9A41.21,41.21,0,0,1,129.66,41.33Z"/><path class="cls-4" d="M127.3,67.91a63.65,63.65,0,0,1-2,9.62s-17.54,23.87-33.7,35.7l-6.23-2.64A97.5,97.5,0,0,0,73.75,141s1.37,11-2.43,25.67c0,0,22.07,19.55,27.57,39.83,0,0,10.77,7.39,16.69,14.15,0,0,20.91,2.75,29.15,2.33,0,0,20.5-8.24,34.12-12.47,0,0,12.15-26.94,28.21-43.84,0,0-2.54-15.31-1.59-25.88,0,0-16.16-17.22-9.82-38.13l-10.14-1a10.61,10.61,0,0,0-3.91-4.33S164.38,92.84,155.82,88c0,0-13.73-7.6-19.54-11.72A43.67,43.67,0,0,1,127.3,67.91Z"/><path class="cls-5" d="M178.66,116.65a10.43,10.43,0,0,0-1.49,5.57,32.73,32.73,0,0,1-9.92,11.64,27.22,27.22,0,0,0-3.29-5.4l-.27-1.7-1.42-1.61.54-.63,1.07-1.64.76-.67,1.63-2.14,1.5-1.84,2.31-2.49.26-.41-.7.41L168.2,117l-1.87,1.84-1.4,1.12-1.25,1-1.07,1.22-1.15.72-.68.57-.11-.13a13,13,0,0,0-4-2.24s-3.73-2.82-5.46-3.37l2.48-2.51a27.88,27.88,0,0,0,9-7.21s5.1-3.29,7.81-4.63a128.78,128.78,0,0,1,13-4.76l2,.69.71,3.37Z"/><path class="cls-5" d="M205.91,146.52l-2.67,2.71a145.69,145.69,0,0,0-14.54,6.39s-9.69.63-15.13,3.46l-5.34-.28,2-5.37.06-4.88,1.56-.12,1.91-.39,1,.06,2.67-.37,2.35-.23,3.4-.14.48-.1-.79-.21-1.88-.16-2.62,0-1.78-.2-1.61-.16-1.62.11-1.33-.3-2.14-.18-.46-1L169,140l-1.29-1.69v-2.9l2.81-.39a12.58,12.58,0,0,0,4.12,1.22l1.34-.61a98.3,98.3,0,0,1,14.9,3.08s4.19,3.72,8.31,3.72A61.36,61.36,0,0,1,205,144.8Z"/><path class="cls-5" d="M184,192l-1.45,2.39-2.35.39a96.58,96.58,0,0,0-9.33-3.06,31.08,31.08,0,0,1-6.23-3.88c-4.2-4.43-10.91-8-10.91-8L151.34,177a21.47,21.47,0,0,0,4.78-3.1h1l3.18-3,1,.87,1.63,1.07.67.75,2.14,1.63,1.84,1.51,2.5,2.3.41.27-.41-.71-1.22-1.44-1.83-1.86-1.12-1.4-1-1.26-1.22-1.06-.73-1.16-1-1.14,2.85-2.72,2.59-5.72a118.84,118.84,0,0,1,10.39,12c3,5.88,5.76,12.19,5.76,12.19C183.25,187.11,184,192,184,192Z"/><path class="cls-5" d="M149.77,108l-.47,9-4.67-1-3.68-.54-1.34-.22-.1-1.26-.39-1.91,0-1-.36-2.66-.24-2.36-.13-3.39-.11-.49-.21.79,0,.53-.07.17-.12.45-.24,1.64V110l-.9,4.94a50.07,50.07,0,0,0-5.06,0,44.39,44.39,0,0,0-5,1.61c-.12-4.63,0-9.42,0-9.42l1.21-3.09L129,95.72a41.89,41.89,0,0,0,6.55-13.57l2.19-1.92,1.25.32c2.32,5.32,7.45,12.18,7.45,12.18A68,68,0,0,0,149.77,108Z"/><path class="cls-5" d="M150.24,180.21a45.32,45.32,0,0,1-1,8.15c-.83,2.82-2,6.12-2,6.12s-1,4.62-1.73,9.44a45.46,45.46,0,0,1-5.64,9.49l-3.1,1.14-2.27-1.84s-3.73-7.61-4.71-9.84l1.33-1.26-.15-.94-1.06-.27a39.7,39.7,0,0,0-3-8.43s-.08-3.49-.39-7.73-.67-4.35-.55-6.7l2.9.43.51.51a47.14,47.14,0,0,0,7.94.94l.1,1.36.4,1.91-.06,1,.36,2.67.24,2.36.13,3.4.11.47.21-.79.15-1.87,0-2.62.2-1.79.15-1.61-.11-1.62.31-1.33.12-1.45,1,0c7.69.16,9.14-1,9.14-1Z"/><path class="cls-5" d="M123.81,177.23s-4.82,4.35-6.2,6.5l-10.46,6.39s-8.51,2.48-14,4.12l-2.24.39-1.49-2,1.37-4.46a44.56,44.56,0,0,1,4.39-11.73s3.73-4.82,5.73-7.57l.31-1.53a77.39,77.39,0,0,1,5.92-6.46,19,19,0,0,0,5.29,7.48V169s.5.58,1.52,1.53l-.91,1.4-.76.68-1.63,2.14-1.5,1.84L106.85,179l-.26.42.7-.41,1.44-1.22L110.6,176l1.4-1.12,1.25-1,1.07-1.22,1.15-.73,0,0c.73.62,1.59,1.31,2.59,2l1,.36A27,27,0,0,0,123.81,177.23Z"/><path class="cls-5" d="M105.07,155.94l.9,2.74c-5.52,1.65-17.35-1.57-17.35-1.57a12,12,0,0,1-4-2.62l-3.83,0c-3.38-3.21-10.16-6.31-10.16-6.31l.86-3.72L80.1,140a116,116,0,0,0,18.19-4.51l6.78-.51,1.55.59-1.55,5.84v5l-1.9.4-1-.05-2.67.35-2.35.25-3.4.13-.48.1.79.21,1.88.16,2.62,0,1.78.2,1.62.16,1.61-.11,1.33.3.19,0v1.38C105.15,153.15,105.07,155.94,105.07,155.94Z"/><path class="cls-5" d="M123.42,117l-1.92,2.19h-.75l-4.07,2.91h-.59q-.36.36-.75.81L114,122l-.67-.77-2.14-1.63-1.84-1.49-2.5-2.32-.41-.26.41.71,1.22,1.43,1.83,1.88,1.13,1.4,1,1.25,1.23,1.06.72,1.16,0,0c-2.25,2.68-4.68,5.94-4.68,5.94v.75l-1.69,2.66C101.23,128,97,119.47,97,119.47s-2.28-7.68-2.71-9.91-3.76-5.45-3.76-5.45-1.38-2.71,0-4.28,7.29.67,7.29.67c3.53,3.1,18.78,9.92,18.78,9.92A33.75,33.75,0,0,1,123.42,117Z"/><path class="cls-5" d="M149.51,97.11a73.92,73.92,0,0,0,2.18,10.25l.74,1.4-1,5.27.66.33a43.9,43.9,0,0,0,6.05-5.68l1.85-2.43s4-2.3,5.93-3.37v-3.3a8.6,8.6,0,0,1,.62-3.08c.61-1.36-.42-7.33-.42-7.33V83.41s-.57-2.06-2.14-.86S159,88.06,156.46,90,150.12,96,149.51,97.11Z"/><path class="cls-5" d="M180.05,119.69a18.21,18.21,0,0,0-.34,2.64s-2.08,6.33-7.29,9.93l.74,1.08,2.21.26s3.6-.91,13.27,1.65l.82-.25a34.3,34.3,0,0,1,6.16-4.61,95.88,95.88,0,0,1,5.89-8.45c1.82-2-2.73-1.73-2.73-1.73s-6.93-.18-8.11-.52S182.91,118.43,180.05,119.69Z"/><path class="cls-5" d="M119,109.37c1.13.23,4.44,3.07,4.44,3.07l.39-.63v-5.56l1.18-3.39,1.17-7c-3.11-2.58-6.64-8.32-6.64-8.32-1.76-.22-4-2.44-6.55-3.48s-2.71,2-2.71,2c-.09,2.89-.77,4.2-.27,7.77a43.21,43.21,0,0,1-.37,9.4C111.07,106.21,119,109.37,119,109.37Z"/><path class="cls-5" d="M82,131.28A16.77,16.77,0,0,0,87.1,136l10.33-3.22H102l.4-.62a68,68,0,0,1-8.65-12.79l-.44-.93c-5.29,1.06-14.69.31-14.69.31-1.49.44-3.66,1.72-3.88,3s1.86,4,2.52,5S80.05,128.37,82,131.28Z"/><path class="cls-5" d="M86.17,173.93a60.56,60.56,0,0,0,7.19.81l5.11-6.15-.19-2.08,3.83-4.44v-.66l-1.14-.24a47,47,0,0,1-13.52-2c-2.74,2.28-6.19,5.66-9.45,7.79s-2.65,3.78-2.65,3.78A6.62,6.62,0,0,0,77,173.79C78,174.64,81.35,173.18,86.17,173.93Z"/><path class="cls-5" d="M126.65,197.94c-.71-2.38-2.13-5.63-2.13-5.63.31-3.44-1.21-10.89-1.21-10.89l-1,.2a27.18,27.18,0,0,0-3.8,4.16l-9.67,6.38c.86,4.26-.26,13.58,0,16.17s3.24,2.12,6.18-.51a114.92,114.92,0,0,1,9.93-7.2Z"/><path class="cls-5" d="M163.75,190.44c-4.13-4.4-11-8.14-11-8.14l-.45.45a20.61,20.61,0,0,1,0,4.33c-.26,2.19-2.46,7.55-2.46,7.55l-.45,3.75s7.75,7,10.4,9.62,5.55,5.62,5.3,2.05.77-5.92,1.16-10.31a19.15,19.15,0,0,0-1.75-8.79Z"/><path class="cls-5" d="M196.26,166c-1.45-2.86-6.87-7.66-6.87-7.66h-.89a90.86,90.86,0,0,0-15.57,3.39v.63c2.39,2.18,6.4,8.49,6.4,8.49l2.5,3.7c2.3-.16,9.38.46,13.34,0s5.78-1.2,5.63-2.45S197.72,168.88,196.26,166Z"/><path class="cls-5" d="M86.62,116.53a19.52,19.52,0,0,0,7.12-.22L92.05,110a9,9,0,0,0-5.3-.51l-1.93.38v1.25l1.05,2.3Z"/><path class="cls-5" d="M100.3,99.55c2.55,2,7.08,3.07,7.08,3.07a40.7,40.7,0,0,0,.26-7.26,16.42,16.42,0,0,1-6.78-2.24c-1.38-.82-1.17.82-1.17.82A43.68,43.68,0,0,1,100.3,99.55Z"/><path class="cls-5" d="M127.28,94.36a27.52,27.52,0,0,0,3.64-5.42s-3.77-5.32-4.07-6.77-1.68-.59-1.76.7-1.13,5.26-2.3,6.07A47.24,47.24,0,0,0,127.28,94.36Z"/><path class="cls-5" d="M148.77,94.09a58.46,58.46,0,0,1,4.48-4.16s-.61-4.4-.72-6.84-1.87-2.33-2.76-.92-3,4.14-4.08,5.47l2.65,4.23Z"/><path class="cls-5" d="M174.44,99.52s-.58-4,.77-6.29c0,0,.7-1.06,0-1.65a1.16,1.16,0,0,0-1.72,0c-.58.44-4.71,1-4.71,1s.52,2.94,0,4a8.83,8.83,0,0,0-.55,5.41A43.8,43.8,0,0,1,174.44,99.52Z"/><path class="cls-5" d="M181.1,117a51.76,51.76,0,0,1,7.76.3,15.77,15.77,0,0,1,3.24-6.38,3.38,3.38,0,0,0,.38-2.34,28.33,28.33,0,0,1-7.76,1.15A75,75,0,0,0,181.1,117Z"/><path class="cls-5" d="M191.27,136.43l.31.55a18.83,18.83,0,0,0,7.54,2.85,25,25,0,0,1,4.14-2.58c2.39-1.17,1.68-2.73.47-2.93s-5.94-.66-7.38-1.48A22,22,0,0,0,191.27,136.43Z"/><path class="cls-5" d="M76,140,80,137.6a13,13,0,0,0,3.43-1l.23-.66a8.77,8.77,0,0,1-2.33-2.49,14.33,14.33,0,0,0-3-3.16c-3.33,2.07-5.56,2.07-6.24,2.58s-.17,1.46-.17,1.46A42.92,42.92,0,0,1,76,140Z"/><path class="cls-5" d="M78.07,164.21c1.44-1.47,6.56-5.92,6.56-5.92v-.6a15.81,15.81,0,0,1-1.08-1.19H80.37c-.72-.61-1.8-1.32-1.8-1.32a29.2,29.2,0,0,1-6.12,3.69c-.36.5.14,1.47.14,1.47C75.28,161.16,78.07,164.21,78.07,164.21Z"/><path class="cls-5" d="M204.12,158.78a33.44,33.44,0,0,1-5-4.81c-3.19.95-7.23,2.64-7.23,2.64a30.6,30.6,0,0,1,4.7,6s3.41-1.79,4.85-1.77S206.15,160.11,204.12,158.78Z"/><path class="cls-5" d="M92.54,176.6A42.57,42.57,0,0,1,85,176c0,2.15-2.23,7.13-2.23,7.13a2.55,2.55,0,0,0,1,1.31c4.65-.26,6.39-1.14,6.39-1.14A31.53,31.53,0,0,1,92.54,176.6Z"/><path class="cls-5" d="M191.87,176.66a54.12,54.12,0,0,1-5.49,0,22.63,22.63,0,0,0-3.52,0s.89,3.3,2.15,6.83c0,0,1.26-.51,3.42.68s2.6,1.33,3.44,1.33a1.68,1.68,0,0,0,.94-1S191.39,179.22,191.87,176.66Z"/><path class="cls-5" d="M97.84,194.63a24.5,24.5,0,0,1-.63,5.22c-.29.81.56,3.1,2,2.21a7.42,7.42,0,0,1,3.87-.84,16,16,0,0,0,4-1.59,59.25,59.25,0,0,0-.26-7.07A70.75,70.75,0,0,0,97.84,194.63Z"/><path class="cls-5" d="M175.52,195.38a31.39,31.39,0,0,0-4.44-1.28,19.35,19.35,0,0,0-3.07-.35s.62,3.58,1,7.24a17.56,17.56,0,0,1,5.29,3s1.95.35,2.34,0a2.8,2.8,0,0,0,.35-2.1C176.84,201.42,175,197.25,175.52,195.38Z"/><path class="cls-5" d="M126.2,202.26l-6,4.46c1.21,1.56,2,5.5,2.11,6.64s1.22,1.39,2.32,1.19,0-2.23,2.5-3.89,3-2.73,3-2.73l-3.15-6.61Z"/><path class="cls-5" d="M147.52,204.63a43.5,43.5,0,0,1-2.14,4.93c1.85,1,4.13,3.78,4.86,4.36a1.71,1.71,0,0,0,2.44-.35c.49-.79-.5-2.08.29-4.07a32.57,32.57,0,0,0,1.2-3.61l-5.95-4.95A15.94,15.94,0,0,0,147.52,204.63Z"/><polygon class="cls-5" points="145.71 173.6 146.18 174.88 147.5 175.31 148.01 175.01 147.27 172.57 146.99 171.76 146.26 169.88 145.15 167.23 145.02 166.55 143.65 163.6 142.93 161.16 141.56 158.42 140.75 156.2 139.72 154.19 138.95 151.75 138.86 152.31 140.45 161.24 141.47 164.15 141.9 166.84 142.54 169.71 143.27 171.42 143.57 172.53 143.91 174.84 144.34 176 145.02 175.95 145.15 174.63 144.94 173.39 145.02 172.4 144.87 172 145.06 171.76 145.71 173.6"/><path class="cls-5" d="M137.82,172.26l.23,1.83s.38,1.42.38,1.51a3.44,3.44,0,0,0,.29.55l.67,0,.23-.9v-1.13c0-.12.09-1,.09-1l.6-.69.38.84.78,1.68.58,1.07.61-.11v-.82l-.26-1.42.06-1.51-.61-1.21-.29-1.66-.35-1.71-.32-2.17-.34-1.8-.67-1.86,0-1-.7-2.61-.52-2.32-.49-3.37L138,152l-.18.81v1.89l.23,2.61-.05,1.8,0,1.62.29,1.59-.24,1.37v2.23l-.17,1.45.15,1.45-.15,1.86Z"/><path class="cls-5" d="M137.05,156.24l.14-1.63,0-2.3-.41.93-.23,1-.35,1.31v1.43c0,.08-.44,1.13-.44,1.13l-.23,2.13-.5,1.66-.55,2-.15,1.17s-.08,1.57-.08,1.68-.41,1.66-.44,1.81-.38,1.6-.38,1.6-.09,1.13-.09,1.25a15.87,15.87,0,0,1-.29,1.95c-.08.18-.26,1.86-.26,1.86l.5.73.87-.32.41-1.05,0-1.22.32-.84.69.17,0,2.15.27,1.4.67-.09.49-1.07.15-1.78-.18-1.48v-1.34l-.09-1.34.21-1.51,0-1.43.06-2.38.08-1.05v-1l-.08-1.34-.12-1.19.2-1.72Z"/><path class="cls-5" d="M130.22,174.37l.18.7.73,0,.58-1.15L132,173l.31-1.25.15-1.27.27-1.4.18-1,.43-1.7.21-1.36s.09-1.64.12-1.76.21-1.09.21-1.09l.58-1.49.15-1.4.18-1.69.52-1.1.09-1.42.79-2.67-.3-.12-.16.45-.54,1.06-.37,1-.63,1.25-.52,1.18-.42.91-.25,1.22-.51,1.39-.49,1.4-.63,1.21-.52,1.4-.58,1.36-.39.58-.61.88s-.54,1.45-.63,1.54-.4,1-.55,1.25a2.71,2.71,0,0,0-.18.82c0,.09-.79,1.6-.91,1.76a7.49,7.49,0,0,0-.43.94l.49.36.57-.24a5.21,5.21,0,0,0,.79-.67c0-.09.67-.58.67-.58l.52-1,.66-.21s.09.64.09.73-.15,1-.15,1Z"/><path class="cls-5" d="M124.59,172.06l-.07,1.08.28.71.81-.27.41-1.25.64-.75.47-1.35.78-1.63.82-1.76.84-1.73c.07-.14.68-1.19.68-1.19l.54-1.59.72-1.7.64-1.49.51-1.49.51-1.12.34-1.22.84-1.69.72-1.46-.14-.37-.14.13-.27.44-.4.65-.48.54-.91,1-.65,1-.57,1.18-.34.92-.68.78L129.3,160l-.81,1.22-.51.82-.54,1.18L126,165.07s-.91,2-1,2.17a6.11,6.11,0,0,1-.67.88c-.1.11-1,1.19-1.12,1.26a5.58,5.58,0,0,0-.65.88l-.74,1.69.37.58,1-.51.82-.61.4-.91a10.28,10.28,0,0,1,1.09-.78c.1,0,.1.17.1.17l-.07.78Z"/><path class="cls-5" d="M120.5,169.16l-.88.77.06.76.57,0,.48-.54.62-.68.74-.43.57-.71,1-1.36.85-1,.54-.88.45-.68.29-.68,1-.79.62-1.23.57-1.22,1.45-2.1.54-1,.51-.88.57-1,.71-.74.71-1.53.8-.68.71-.88v-.3l-.05-.39-.24.22-.23.33-.68.59-.74.94-.9.68-1,1.34-1,1.05-.8.51-.57,1-.74.6-.85.74-.65.59a7.62,7.62,0,0,0-.6.69c0,.08-.76.93-.76.93l-1.68,1.42-1.17,1.48-1.42.94-.71.76s-.45.94-.54,1l-.79.76s-.54.88-.57,1,.43.4.51.45.54-.11.54-.11l1-.8.86-1a6.49,6.49,0,0,1,.88-.37,1,1,0,0,1,.22,0,6.37,6.37,0,0,1,.26.68.92.92,0,0,1-.17.57Z"/><path class="cls-5" d="M149.69,169.76l.63.41.88,1.25.56.41.5.09.31-.13-.06-.56a2.71,2.71,0,0,1-.34-.44c0-.09-.66-1.28-.66-1.37a4.35,4.35,0,0,0-.28-.66l-.75-1.16-.69-1-1-.94-.31-.85-.54-1.22-.72-.93-.62-1-.5-1.12-1.57-1.76-.69-1.5-1.09-1.22-.63-.91-.78-1.19-.94-1.53-.38-.63L140,152l0,.53.75,1.76.47.9.47,1.22.72,1.13.66,1.75.75,1.76.37,1.19.51,1.4.31,1,.72,1.09,0,1,.66,1.32.65,1.09.38,1,1,1.66.59,1.07.47.84.38-.28.16-.56-.35-.82-.34-1,.06-.81Z"/><polygon class="cls-5" points="129.39 120.76 128.92 119.47 127.59 119.05 127.08 119.35 127.83 121.79 128.11 122.6 128.83 124.48 129.94 127.13 130.07 127.81 131.44 130.76 132.17 133.2 133.54 135.94 134.35 138.16 135.38 140.17 136.14 142.6 136.23 142.05 134.65 133.11 133.62 130.21 133.19 127.51 132.55 124.65 131.83 122.94 131.53 121.83 131.19 119.52 130.76 118.36 130.07 118.41 129.94 119.73 130.16 120.97 130.07 121.95 130.22 122.36 130.03 122.6 129.39 120.76"/><path class="cls-5" d="M137.3,139.67v1.88l-.17.81-.17-.46-.5-3.36-.52-2.32-.7-2.61,0-1-.66-1.86-.35-1.8-.32-2.18-.35-1.71-.29-1.65-.61-1.22.06-1.51-.26-1.41v-.82l.61-.11.58,1.07.78,1.68.38.84.61-.69s.08-.84.08-1v-1.13l.23-.9.67,0a3,3,0,0,1,.29.55s.1.42.19.79h0c.09.36.19.71.19.71l.23,1.82v1.6l-.14,1.86.07.75.07.7-.17,1.45v2.23l-.24,1.36.3,1.6,0,1.62-.06,1.8Z"/><path class="cls-5" d="M142.33,119.14a18.29,18.29,0,0,1-.27,1.87,18.05,18.05,0,0,0-.29,1.95c0,.11-.09,1.25-.09,1.25s-.35,1.46-.38,1.6-.43,1.69-.43,1.8-.09,1.69-.09,1.69l-.15,1.16-.55,2-.5,1.65-.23,2.13s-.43,1-.43,1.13v1.43l-.35,1.3-.23,1-.41.93,0-2.3.15-1.63-.21-1.22.21-1.72-.12-1.19-.09-1.34V131.6l.09-1,.06-2.39,0-1.42.2-1.51-.09-1.34v-1.34l-.17-1.48.14-1.78.5-1.08.67-.08.26,1.39,0,2.15.61.16.09,0,.32-.84,0-1.22.4-1.05.88-.32Z"/><path class="cls-5" d="M144.87,120l-.18-.7-.73,0-.58,1.15-.33.85-.3,1.24-.15,1.28-.28,1.39-.18,1-.42,1.69-.22,1.37s-.09,1.64-.12,1.76-.21,1.09-.21,1.09l-.58,1.49-.15,1.39-.18,1.7-.52,1.09-.09,1.43-.79,2.67.31.12.15-.45.55-1.07.36-1,.64-1.24.51-1.18.43-.91.24-1.22.52-1.39.48-1.4.64-1.21.51-1.4.58-1.36.39-.58.61-.88s.55-1.45.64-1.55.39-1,.54-1.24a2.5,2.5,0,0,0,.19-.82c0-.09.79-1.61.91-1.76a7.18,7.18,0,0,0,.42-.94l-.48-.36-.58.24a5.21,5.21,0,0,0-.79.67c0,.09-.67.57-.67.57l-.51,1-.67.21s-.09-.64-.09-.73.15-1,.15-1Z"/><path class="cls-5" d="M150.5,122.3l.07-1.08-.27-.71-.81.27-.41,1.25-.65.75-.47,1.35-.78,1.63-.81,1.76-.85,1.73c-.07.14-.68,1.19-.68,1.19L144.3,132l-.71,1.69-.65,1.5-.5,1.49-.51,1.12-.34,1.22-.85,1.69L140,142.2l.13.37.14-.13.27-.45.41-.64.47-.54.92-1,.64-1,.58-1.18.34-.92.67-.78,1.19-1.63.81-1.22.51-.81.54-1.19,1.46-1.83,1-2.17a7.48,7.48,0,0,1,.68-.88c.1-.1,1-1.18,1.12-1.25a6.13,6.13,0,0,0,.64-.88l.75-1.7-.38-.57-1.05.51-.81.61-.41.91a10.09,10.09,0,0,1-1.08.78c-.1,0-.1-.17-.1-.17l.06-.78Z"/><path class="cls-5" d="M154.59,125.2l.88-.77-.05-.76-.57,0-.48.54-.63.68-.74.42-.57.71-1,1.37-.85,1-.54.88-.46.69-.28.68-1,.79-.62,1.22-.57,1.23-1.45,2.1-.54,1-.51.88-.57,1-.71.73-.71,1.54-.79.68-.71.88v.3l0,.39.24-.22.23-.33.68-.59.74-.94.91-.68,1-1.34,1-1,.79-.51.57-1,.74-.6.85-.74.66-.6a7.41,7.41,0,0,0,.59-.68c0-.08.77-.93.77-.93l1.67-1.42,1.17-1.48,1.42-.94.71-.77s.45-.93.54-1l.79-.77s.54-.88.57-1-.42-.4-.51-.46-.54.12-.54.12l-1.05.79-.85,1a7.09,7.09,0,0,1-.88.37,1,1,0,0,1-.23,0,5.72,5.72,0,0,1-.25-.68.92.92,0,0,1,.17-.57Z"/><path class="cls-5" d="M125.4,124.6l-.63-.41-.87-1.25-.57-.41-.5-.09-.31.12.06.57a2.68,2.68,0,0,1,.35.44c0,.09.65,1.28.65,1.37a4.27,4.27,0,0,0,.29.66l.75,1.16.69,1,1,.94.31.84.53,1.22.72.94.63,1,.5,1.13,1.56,1.75.69,1.51,1.1,1.22.62.9.78,1.19.94,1.54.38.62.06-.15,0-.54-.75-1.75-.47-.91-.47-1.22-.72-1.12-.65-1.76-.76-1.75-.37-1.19-.5-1.41-.31-1-.72-1.09,0-1-.65-1.32-.66-1.09-.38-1-1-1.65-.59-1.07-.47-.84-.38.28-.15.56.34.81.35,1-.07.82Z"/><polygon class="cls-5" points="109.84 155.81 109.42 157.13 109.72 157.65 112.15 156.9 112.96 156.62 114.84 155.89 117.5 154.78 118.18 154.65 121.13 153.28 123.57 152.56 126.3 151.19 128.53 150.38 130.54 149.35 132.97 148.58 132.42 148.5 123.48 150.08 120.57 151.1 117.88 151.53 115.02 152.17 113.31 152.9 112.19 153.2 109.89 153.54 108.73 153.97 108.77 154.65 110.1 154.78 111.34 154.57 112.32 154.65 112.73 154.5 112.96 154.7 111.13 155.34 109.84 155.81"/><path class="cls-5" d="M109.77,151.11l-1.08.58.12.61h.81L111,152l1.51.05,1.22-.61,1.65-.29,1.71-.34,2.18-.32,1.8-.35,1.85-.67,1,0,2.61-.69,2.32-.52,3.36-.5.47-.17-.82-.18H130l-2.61.24-1.8-.06-1.62,0-1.6.29-1.36-.23h-2.23l-1.45-.18-1.45.15-1.86-.15h-1.6l-1.82.23s-1.42.38-1.51.38a3,3,0,0,0-.55.29l0,.67.9.23h1.13c.11,0,1,.09,1,.09l.7.61-.84.37Z"/><path class="cls-5" d="M109.89,145.2l-1.4.26.09.67,1.08.49,1.77.15,1.49-.18h1.34l1.34-.08,1.51.2,1.42,0,2.39.06,1,.08h1l1.33-.08,1.2-.12,1.71.2,1.23-.2,1.63.15,2.3,0-.94-.41-1-.23-1.31-.35h-1.42c-.09,0-1.14-.44-1.14-.44l-2.12-.23-1.66-.5-2-.55-1.16-.14-1.69-.09c-.11,0-1.66-.41-1.8-.44l-1.6-.38-1.25-.08a16,16,0,0,1-2-.3c-.18-.08-1.87-.26-1.87-.26l-.72.5.32.87,1,.41,1.23,0,.84.32-.18.7Z"/><path class="cls-5" d="M111.51,139.89l-1.16,0-.69.19,0,.72,1.15.58.85.34,1.24.3,1.28.15,1.39.27,1,.19,1.7.42,1.37.21s1.64.09,1.76.12l1.09.22,1.49.57,1.39.15,1.7.19,1.09.51,1.43.09,2.67.79.12-.3-.46-.15-1.06-.55-1-.36-1.24-.64-1.19-.52-.91-.42-1.21-.24-1.39-.52-1.4-.48L121.4,141l-1.4-.52-1.36-.57-.58-.4-.88-.61s-1.46-.54-1.55-.63-1-.4-1.24-.55a2.71,2.71,0,0,0-.82-.18c-.09,0-1.61-.79-1.76-.91a7.49,7.49,0,0,0-.94-.43l-.36.49.24.58s.57.79.67.79.57.66.57.66l1,.52.22.67s-.64.09-.73.09S111.51,139.89,111.51,139.89Z"/><path class="cls-5" d="M114.84,135.24l-.78-.07-1.39-.95-1.09-.06-.71.27.27.81,1.26.41.74.64,1.36.48,1.63.78,1.76.81,1.73.85c.13.06,1.18.67,1.18.67l1.6.55,1.69.71,1.49.64,1.49.51,1.12.51,1.22.34,1.7.85,1.46.71.37-.14-.14-.13-.44-.27-.64-.41-.54-.48-1-.91-1-.65-1.19-.57-.91-.34-.78-.68-1.63-1.18-1.22-.82-.81-.51-1.19-.54-1.83-1.46-2.17-1a6.73,6.73,0,0,1-.88-.68c-.1-.1-1.18-1-1.25-1.12a5.44,5.44,0,0,0-.88-.64l-1.7-.75-.57.37.5,1.05.61.82.92.4a10.28,10.28,0,0,1,.78,1.09C115,135.24,114.84,135.24,114.84,135.24Z"/><path class="cls-5" d="M117.21,131.24c-.22.06-.56-.17-.56-.17l-1.08-.94-.77-.88-.77.06,0,.57.53.48.69.63.42.73.71.57,1.37,1,1,.85.88.54.68.45.69.29.79,1L123,137l1.22.57,2.11,1.44,1,.54.88.51,1,.57.74.71,1.54.71.68.8.88.71h.3l.39,0-.22-.25-.33-.22-.6-.68-.93-.74-.68-.91-1.34-1-1-1L128,138l-1-.57-.59-.73-.74-.86-.6-.65a7.37,7.37,0,0,0-.68-.6c-.08,0-.94-.76-.94-.76L122,132.12,120.57,131l-.94-1.42-.77-.71s-.94-.46-1-.54l-.77-.8s-.88-.54-1-.57-.4.43-.46.51.12.54.12.54l.79,1.06,1,.85a6.59,6.59,0,0,1,.36.88,1.63,1.63,0,0,1,0,.23S117.44,131.18,117.21,131.24Z"/><path class="cls-5" d="M113.31,160.83l-.41.56-.09.5.12.32.57-.07a3.06,3.06,0,0,1,.43-.34c.1,0,1.29-.66,1.38-.66a4.84,4.84,0,0,0,.66-.28l1.16-.75,1-.69.94-1,.84-.31,1.22-.53.94-.72,1-.63,1.13-.5,1.75-1.57,1.5-.68,1.22-1.1.91-.63,1.19-.78,1.54-.94.62-.37-.16-.07-.53,0-1.75.75-.91.47-1.22.47-1.13.72-1.75.66-1.75.75-1.19.38-1.41.5-1,.31-1.1.72-1,0-1.31.66-1.1.66-1,.37L113,158l-1.06.6-.85.47.29.37.56.16.81-.35,1-.34.82.06.47.35-.41.62Z"/><polygon class="cls-5" points="165.25 138.55 165.68 137.22 165.38 136.71 162.94 137.46 162.13 137.74 160.25 138.47 157.6 139.58 156.91 139.71 153.96 141.07 151.53 141.8 148.79 143.17 146.57 143.98 144.56 145.01 142.12 145.78 142.68 145.86 151.61 144.28 154.52 143.25 157.21 142.83 160.08 142.19 161.79 141.46 162.9 141.16 165.21 140.82 166.36 140.39 166.32 139.71 165 139.58 163.75 139.79 162.77 139.71 162.36 139.85 162.13 139.66 163.97 139.02 165.25 138.55"/><path class="cls-5" d="M165.33,143.25l1.07-.58-.12-.61h-.81l-1.42.26-1.51,0-1.22.6-1.65.29-1.71.35-2.17.32-1.8.35-1.86.67-1,0-2.61.69-2.32.52-3.37.5-.46.17.81.17h1.89l2.61-.23,1.79.06,1.63,0,1.59-.29,1.37.23h2.23l1.45.18,1.45-.15,1.85.15h1.6l1.83-.24s1.42-.37,1.5-.37a3.18,3.18,0,0,0,.56-.29l0-.67-.9-.23h-1.13c-.12,0-1-.09-1-.09l-.7-.61.84-.38Z"/><path class="cls-5" d="M165.2,149.16l1.4-.26-.09-.67-1.07-.49-1.78-.15-1.48.17h-1.34l-1.34.09-1.51-.2-1.43,0-2.39-.06-1-.09h-1l-1.34.09-1.19.12-1.72-.21-1.22.21-1.63-.15-2.3,0,.93.41,1,.23,1.31.35h1.43c.08,0,1.13.44,1.13.44l2.12.23,1.66.49,2,.56,1.16.14,1.69.09c.12,0,1.66.41,1.81.44l1.6.37,1.25.09a18.43,18.43,0,0,1,1.95.29,18.13,18.13,0,0,0,1.86.27l.73-.5-.32-.87-1.05-.41-1.22,0-.85-.32.18-.7Z"/><path class="cls-5" d="M163.59,154.47l1.15,0,.7-.18,0-.73-1.16-.57-.84-.34-1.25-.3-1.27-.15-1.4-.27-1-.19-1.7-.42-1.36-.21s-1.64-.1-1.76-.13l-1.1-.21-1.48-.57-1.4-.16-1.7-.18-1.09-.51-1.42-.09-2.67-.79-.13.3.46.15,1.06.55,1,.36,1.25.64,1.18.51.91.43,1.21.24,1.4.52,1.39.48,1.22.64,1.39.52,1.37.57.57.4.88.6s1.46.55,1.55.64,1,.39,1.25.55a2.66,2.66,0,0,0,.81.18c.1,0,1.61.79,1.76.91a7.83,7.83,0,0,0,.94.42l.37-.48-.24-.58a5.21,5.21,0,0,0-.67-.79c-.09,0-.58-.66-.58-.66l-1-.52-.21-.67s.64-.09.73-.09S163.59,154.47,163.59,154.47Z"/><path class="cls-5" d="M160.26,159.12l.77.07,1.39.94,1.09.07.71-.27-.27-.81-1.25-.41-.75-.64-1.36-.48-1.62-.78L157.2,156l-1.72-.85-1.19-.68-1.59-.54-1.7-.71-1.49-.64-1.49-.51-1.12-.51-1.22-.34-1.69-.85-1.46-.71-.37.14.13.13.44.27.65.41.54.47,1,.92,1,.64,1.19.58.92.34.77.68,1.63,1.18,1.22.82.82.5,1.18.55,1.83,1.45,2.17,1a6.73,6.73,0,0,1,.88.68c.1.1,1.19,1,1.26,1.12a5.62,5.62,0,0,0,.88.64l1.69.75.58-.38-.51-1-.61-.81-.91-.41a10.09,10.09,0,0,1-.78-1.08C160.09,159.12,160.26,159.12,160.26,159.12Z"/><path class="cls-5" d="M157.88,163.12a.92.92,0,0,1,.57.17l1.08.93.76.89.77-.06,0-.57-.54-.48-.68-.63-.43-.74-.71-.56-1.36-1-1-.85-.88-.54-.68-.46-.68-.28-.8-1-1.22-.63-1.22-.57-2.1-1.45-1-.54-.88-.51-1-.56-.74-.71-1.53-.71-.68-.8-.88-.71h-.3l-.39,0,.22.24.32.23.6.68.94.74.68.91,1.33,1,1,1,.52.8,1,.56.6.74.73.85.6.66a7.22,7.22,0,0,0,.68.59c.09,0,.94.77.94.77l1.42,1.68,1.48,1.16.93,1.42.77.71s.94.46,1,.54l.77.8s.88.54,1,.56.39-.42.45-.51-.11-.54-.11-.54l-.8-1-1-.85a7.09,7.09,0,0,1-.37-.88,1.11,1.11,0,0,1,0-.23A5.09,5.09,0,0,1,157.88,163.12Z"/><path class="cls-5" d="M161.79,133.53l.4-.56.1-.51-.13-.31-.56.06a3.2,3.2,0,0,1-.44.35c-.09,0-1.28.66-1.38.66a4.66,4.66,0,0,0-.65.28l-1.16.75-1,.69-.94,1-.85.31-1.22.53-.94.72-1,.63-1.12.5-1.76,1.56-1.5.69-1.22,1.1-.91.62-1.19.79-1.53.94-.63.37.16.06.53,0,1.75-.76.91-.47,1.22-.47,1.13-.71,1.75-.66,1.75-.75,1.19-.38,1.41-.5,1-.31,1.09-.72,1,0,1.32-.66,1.09-.66,1-.37,1.66-1,1.07-.6.84-.47-.28-.37-.56-.16-.82.34-1,.35-.81-.06-.47-.35.4-.62Z"/><path class="cls-5" d="M158.07,129.69c.05-.09.64-.79.64-.79l.81-1,.12-.45-.4-.59-.61,0-.93.81s-.89.87-.92,1-.9,1.29-.9,1.29l-1.62,1.12-1,.87-1.15,1.37-.92.73-1.12,1.12-.4.76-.92.78-1.09.73-.59,1.12-.81,1.09-1.1.67-.92,1-1,.68-.7.89-.53.48-.23.28.34,0,1.63-.79s1.17-.7,1.26-.72.78-.68.89-.73l1.07-.59,1.15-.93,1.26-.86.86-.9,1.18-.62.95-.75,1.6-1,1.26-.84,1-.64,1.43-.68.56-.84c0-.08,1.31-.89,1.31-.89l.84-.84.65-.37.08-.73-.19-.47-1-.09-1,1.26-1.17.73-.9-.53.34-.5S158,129.77,158.07,129.69Z"/><path class="cls-5" d="M119.86,126.57l-1-.77-.36-.71-.51-.2-.64.27.21.77.33.94,1.31,1.17,1,1.14.77,1.08,1.58,1.07.64,1.21,1.91,1.71.84,1,1.27,1.2.61.54,1.17,1.07.71.64,1.14,1.21,1.17.87.91,1.41.77.77.43-.17-.73-1.17-.81-1.48a9.37,9.37,0,0,1-.7-1c0-.1-1-1.1-1.14-1.3s-.91-1.25-.91-1.25l-.81-1.13-1.07-1.28-.5-1.58-1.08-1.37-1.57-2.08-1-1.18a10,10,0,0,1-.87-1.07c0-.1-.34-1-.34-1l-.83-1.27-.68-.68-.77-.43-.53.33,0,.78.74.73.4,1-.64.5Z"/><path class="cls-5" d="M154.67,167.24l1.57,1.25.34.51.51-.2.2-.56s-.4-.46-.46-.57-.65-.88-.65-.88l-.82-.85-.74-1-1.22-1-1.34-1.11-.79-1-.54-.74-.86-.88-1.73-1.51-1.45-1.36-.68-1-1.22-.91-.88-.91-.77-1-1-1.08-.51-.62-.66-.34.83,1.42.76,1,.66,1.31.74,1.08.68.88,1.08,1.48.48,1,1,1.48,1,1.36.82.88.6,1.25.71,1.05,1.53,2,.94,1.62,1,1,.94.17s.31-.25.34-.34.09-.51.09-.51a5.68,5.68,0,0,0-.6-.62c-.09,0-.65-.37-.71-.57s-.17-.63-.17-.63v-.57Z"/><path class="cls-5" d="M116.27,165.42c-.11.06-.77.62-.77.62l-.08.64.62.21,1.18-.64.56-.67,1.16-.93,1-.72,1-1.07,1.26-1,2-1.9.88-.92.85-.85,1-.82.72-1.31,1.23-.82,1-1.52,1.44-1,1.49-1.43.38-.72-.62.33-.74.64-1.1.57-.72.67-1.37.66-.3.47-1,.51-.84.51-.8.67-1.36.82-1.08.88-1,.64-.88.59-1.56.8-.93.72-.56.79-1.08.77s-1.7.88-1.85.9-1,.39-1,.39l-.48.79-.31.49.66.28.7-.05.82-.43,1-.52.77-.07a2.54,2.54,0,0,1,.28.53,2.26,2.26,0,0,1-.26.52S116.37,165.37,116.27,165.42Z"/></g></svg>