<svg xmlns="http://www.w3.org/2000/svg" viewBox="0 0 261.24 236.9"><defs><style>.cls-1{fill:#fff;}.cls-2{fill:#f59b00;}.cls-3{fill:#fad900;}.cls-4{fill:#fae81f;}.cls-5{fill:#fff899;}.cls-6{fill:#c900ae;}</style></defs><title>Proteus_W</title><g id="Layer_2" data-name="Layer 2"><path class="cls-1" d="M40,216.83c0,8.45-6.46,13.76-16.63,13.76H18.14v9H5.84V203.08H23.4C33.57,203.08,40,208.39,40,216.83Zm-12.41,0c0-2.65-1.61-4.27-5-4.27H18.14v8.55h4.48C26,221.11,27.62,219.49,27.62,216.83Z" transform="translate(-5.84 -3.49)"/><path class="cls-1" d="M59.67,230.38H56.33v9.17H44V203.08H61.59c10.17,0,16.63,5.31,16.63,13.75a12.21,12.21,0,0,1-6.88,11.47L79,239.55H65.87Zm1.14-17.82H56.33v8.55h4.48c3.39,0,5-1.62,5-4.28S64.2,212.56,60.81,212.56Z" transform="translate(-5.84 -3.49)"/><path class="cls-1" d="M81.39,221.32c0-11,8.7-19.08,20.58-19.08s20.59,8,20.59,19.08-8.71,19.07-20.59,19.07S81.39,232.36,81.39,221.32Zm28.76,0c0-5.68-3.64-9.12-8.18-9.12s-8.18,3.44-8.18,9.12,3.65,9.11,8.18,9.11S110.15,227,110.15,221.32Z" transform="translate(-5.84 -3.49)"/><path class="cls-1" d="M134.43,212.61H123.75v-9.53h33.66v9.53H146.73v26.94h-12.3Z" transform="translate(-5.84 -3.49)"/><path class="cls-1" d="M190.91,230.28v9.27H160.58V203.08h29.65v9.27H172.67v4.28H188.1v8.85H172.67v4.8Z" transform="translate(-5.84 -3.49)"/><path class="cls-1" d="M195.34,223.14V203.08h12.29v19.69c0,5.58,2.14,7.66,5.58,7.66s5.58-2.08,5.58-7.66V203.08h12.08v20.06c0,10.94-6.56,17.25-17.76,17.25S195.34,234.08,195.34,223.14Z" transform="translate(-5.84 -3.49)"/><path class="cls-1" d="M234.2,236.64l4-9a25.08,25.08,0,0,0,12,3.34c3.49,0,4.74-.73,4.74-2,0-4.59-20.16-.89-20.16-14.49,0-6.77,5.68-12.3,17-12.3a29,29,0,0,1,13.76,3.18l-3.7,8.91a22.53,22.53,0,0,0-10.16-2.71c-3.6,0-4.74,1-4.74,2.3,0,4.37,20.16.73,20.16,14.17,0,6.67-5.68,12.3-17,12.3C244,240.39,237.85,238.88,234.2,236.64Z" transform="translate(-5.84 -3.49)"/><path class="cls-2" d="M131.65,3.49s-2.27,15.06-14.27,21.86L116,30.78s3.85,6.23-1.41,11c0,0-8.67,9.17-13,14.84l-3.11,2S96.82,54.17,94.56,52s-8.44-2.15-10-11.44a24.85,24.85,0,0,0-3.68,9.17s4,4.7,4.64,7.14L85,67.76A155,155,0,0,0,77.8,87s1.24,10.42-3,29c0,0,7,7.65,10.31,10.25s7.87,9.12,12,21.07c0,0,6.9,3.28,16.93,14.38a156.17,156.17,0,0,0,31.77,1.19s18.46-6.51,27.57-10.14c0,0,6.06-19.36,25.09-37.88a61.25,61.25,0,0,1-2.78-27.07s-6.11-6.51-8-11a126.59,126.59,0,0,1,2-17.95s-4.59-7.53-3.51-20c0,0-3.45,4-6.12,6.8l-.56,1.58.23.74a13.57,13.57,0,0,1-3.06,4.24L173,48.17a65.59,65.59,0,0,1-17.27-3.51s-1.7-3.34-9.06-6.57a33.75,33.75,0,0,1-11.61-8.44s.4-6.12,3.46-10.53A37,37,0,0,0,131.65,3.49Z" transform="translate(-5.84 -3.49)"/><path class="cls-3" d="M84.08,45.91a26.36,26.36,0,0,0,9.27,8,36.33,36.33,0,0,1,3.19,9.22,32.88,32.88,0,0,0,6.86-4.55s5.87-9.72,12.4-15.54c0,0,.55,1.43,1.54.28s-.28-1.59-.28-1.59a16.06,16.06,0,0,0,1.71-10.54l2.36-5.93s8.72-6.81,11.52-15.53c0,0,2.58,3.34,2.8,9.71,0,0-2.58,7.52-2.47,11.36a64.13,64.13,0,0,0,12.35,10.32c7.41,4.72,10.38,5.6,12.79,8.29,0,0,9,1.87,14.6,2.47a8.51,8.51,0,0,1,3.84,3.79l1.49-2.8a3.22,3.22,0,0,0,2.9-1.21,1.81,1.81,0,0,0-.33-2.58l1.21-1.1a4.2,4.2,0,0,0,1.7-3.51A41.56,41.56,0,0,0,187.1,58a163,163,0,0,0-2.19,17.89s2.14,6,8.72,12.08a65.38,65.38,0,0,0,2.64,25.47,110,110,0,0,0-24.1,37.1s-16.24,7.19-29.91,10.59a122,122,0,0,1-27-1.48s-4.28-5.87-16.41-13.78c0,0-4-12.13-9.71-19.26a62.17,62.17,0,0,0-11.75-11.31,89.64,89.64,0,0,0,2.36-16.46s3-7.14,1.21-12.9a68.77,68.77,0,0,1,6.53-17s1.65,1,1.92-.33-.93-2.2-1.37-1.92l.82-9.83s-3-3.68-5.21-6.86A19.22,19.22,0,0,1,84.08,45.91Z" transform="translate(-5.84 -3.49)"/><path class="cls-4" d="M130.23,26a27.64,27.64,0,0,1-6.88,7.74s2.44,6.27-2,13.93-13.14,14.7-13.14,14.7-3.74,6.27-9.22,6.88c0,0-4.88.87-5.57-1.48l-.61,3.39v1.22a96.07,96.07,0,0,0-7.75,19.76,108,108,0,0,1-1.83,22s9.4,9.83,19.24,31a99.92,99.92,0,0,1,14.79,13,173.71,173.71,0,0,0,25.07,1.75s19.66-7.14,27.58-11.06c0,0,8.44-19.84,21.93-33.68a83.88,83.88,0,0,1-2.08-22.45s-6.18-6.35-8.18-11.66a55.22,55.22,0,0,1,2.17-18.28l-1.3-4.09s-2,2.61-3.66,3.31l-4.44.35-2.7-3.48s-9.4-1.66-14.53-2.79L155,53.19s-19.58-8.7-25.15-18.1A29.73,29.73,0,0,1,130.23,26Z" transform="translate(-5.84 -3.49)"/><path class="cls-5" d="M128.51,45.37a45.1,45.1,0,0,1-1.46,7s-12.75,17.36-24.5,26L98,76.4a70.72,70.72,0,0,0-8.45,22.13,55,55,0,0,1-1.77,18.66s16,14.21,20,29c0,0,7.83,5.38,12.14,10.3,0,0,15.21,2,21.2,1.69,0,0,14.9-6,24.81-9.07,0,0,8.83-19.59,20.51-31.88,0,0-1.84-11.13-1.15-18.82,0,0-11.76-12.52-7.15-27.73L170.84,70A7.72,7.72,0,0,0,168,66.8S155.48,63.5,149.25,60c0,0-10-5.53-14.21-8.52A32.08,32.08,0,0,1,128.51,45.37Z" transform="translate(-5.84 -3.49)"/><path class="cls-6" d="M165.86,80.81a7.57,7.57,0,0,0-1.08,4,23.86,23.86,0,0,1-7.22,8.47,20.08,20.08,0,0,0-2.39-3.93l-.2-1.23-1-1.18.4-.46.77-1.19.56-.48,1.18-1.56L157.94,82l1.68-1.81.19-.3-.51.3-1.05.88-1.36,1.33-1,.82-.91.75-.78.88-.84.53-.49.42-.09-.1A9.44,9.44,0,0,0,149.9,84a21.68,21.68,0,0,0-4-2.45l1.8-1.82a20.3,20.3,0,0,0,6.55-5.25S158,72.12,160,71.15a95.07,95.07,0,0,1,9.49-3.47l1.46.5.51,2.45Z" transform="translate(-5.84 -3.49)"/><path class="cls-6" d="M185.68,102.53l-2,2a106.61,106.61,0,0,0-10.57,4.65s-7,.46-11,2.51l-3.88-.2,1.45-3.91,0-3.54,1.14-.09,1.39-.29.73.05,1.95-.27,1.71-.17,2.47-.09.35-.08-.58-.15-1.36-.12-1.91,0-1.29-.14-1.17-.12-1.18.09-1-.23-1.55-.12-.34-.75-.34-3.73-.94-1.23V94.44l2.05-.28a9.16,9.16,0,0,0,3,.88l1-.44a72.13,72.13,0,0,1,10.84,2.23s3.05,2.72,6,2.72a44.72,44.72,0,0,1,4.25,1.73Z" transform="translate(-5.84 -3.49)"/><path class="cls-6" d="M169.77,135.58l-1.06,1.74-1.71.28c-1.6-.76-6.78-2.22-6.78-2.22a23.18,23.18,0,0,1-4.54-2.82,35.86,35.86,0,0,0-7.92-5.79L146,124.69a15.83,15.83,0,0,0,3.48-2.25h.74l2.3-2.21.75.64,1.19.78.49.55,1.56,1.18,1.33,1.1,1.82,1.67.3.2-.3-.52-.89-1-1.33-1.36-.82-1-.74-.91-.89-.78-.53-.84-.7-.82,2.07-2,1.89-4.17a87.12,87.12,0,0,1,7.55,8.76c2.2,4.27,4.19,8.87,4.19,8.87A23.49,23.49,0,0,0,169.77,135.58Z" transform="translate(-5.84 -3.49)"/><path class="cls-6" d="M144.85,74.51,144.51,81l-3.4-.68-2.67-.4-1-.16-.07-.91-.29-1.4,0-.73-.26-1.94-.17-1.72-.1-2.47-.08-.35-.15.58,0,.38,0,.12-.09.33-.17,1.2V76l-.66,3.59c-1.22-.11-3.68,0-3.68,0a32.52,32.52,0,0,0-3.64,1.17c-.09-3.37,0-6.85,0-6.85l.88-2.25.83-6a30.53,30.53,0,0,0,4.76-9.86l1.6-1.4.91.23a56.14,56.14,0,0,0,5.41,8.86A49.4,49.4,0,0,0,144.85,74.51Z" transform="translate(-5.84 -3.49)"/><path class="cls-6" d="M145.19,127a32.58,32.58,0,0,1-.74,5.93c-.6,2-1.45,4.45-1.45,4.45s-.75,3.36-1.26,6.87a33.32,33.32,0,0,1-4.1,6.9l-2.26.82-1.65-1.34s-2.71-5.53-3.42-7.15l1-.92-.12-.68-.77-.2a28.62,28.62,0,0,0-2.16-6.13s-.06-2.54-.29-5.62-.48-3.16-.4-4.87l2.11.31.38.37a33.77,33.77,0,0,0,5.77.69l.07,1,.29,1.39,0,.74.26,1.94.17,1.72.1,2.47.08.34.15-.57.11-1.36,0-1.91.14-1.3.12-1.17-.08-1.18.22-1,.09-1h.71c5.58.12,6.64-.72,6.64-.72Z" transform="translate(-5.84 -3.49)"/><path class="cls-6" d="M126,124.86a38,38,0,0,0-4.5,4.73l-7.61,4.65s-6.19,1.8-10.18,3l-1.63.29L101,136.09l1-3.25a32.52,32.52,0,0,1,3.19-8.52s2.71-3.51,4.17-5.5l.22-1.12a56.13,56.13,0,0,1,4.31-4.7,13.78,13.78,0,0,0,3.84,5.44v.41s.37.42,1.11,1.12l-.66,1-.56.5L116.41,123l-1.09,1.34-1.68,1.81-.19.3.51-.3,1.05-.88,1.36-1.34,1-.81.91-.75.78-.89.84-.53,0,0c.53.45,1.16,1,1.88,1.48l.72.26A19.37,19.37,0,0,0,126,124.86Z" transform="translate(-5.84 -3.49)"/><path class="cls-6" d="M112.35,109.38l.65,2c-4,1.19-12.62-1.15-12.62-1.15a8.72,8.72,0,0,1-2.92-1.9l-2.79,0c-2.45-2.34-7.38-4.59-7.38-4.59l.62-2.7,6.28-3.28a84.13,84.13,0,0,0,13.22-3.28l4.94-.38,1.12.43-1.12,4.25v3.6l-1.39.29-.73,0-2,.26-1.71.18-2.47.1-.35.07.58.15,1.36.12h1.91l1.29.14,1.18.12,1.17-.08,1,.22h.14v1C112.4,107.36,112.35,109.38,112.35,109.38Z" transform="translate(-5.84 -3.49)"/><path class="cls-6" d="M125.69,81l-1.4,1.6h-.54l-3,2.11h-.43c-.17.18-.36.37-.55.59l-1-.66-.49-.55-1.56-1.19-1.33-1.08-1.82-1.69-.3-.19.3.52.89,1,1.33,1.36.82,1,.74.91.89.77.53.85,0,0c-1.63,1.94-3.4,4.32-3.4,4.32v.54l-1.23,1.94a39.47,39.47,0,0,1-7.7-10.41s-1.65-5.58-2-7.21-2.74-4-2.74-4-1-2,0-3.11,5.3.49,5.3.49c2.57,2.25,13.66,7.21,13.66,7.21A24.48,24.48,0,0,1,125.69,81Z" transform="translate(-5.84 -3.49)"/><path class="cls-6" d="M144.66,66.6a55.85,55.85,0,0,0,1.58,7.46l.54,1-.69,3.83.48.24A31,31,0,0,0,151,75l1.35-1.76s2.87-1.68,4.31-2.46V68.4a6.24,6.24,0,0,1,.45-2.24c.45-1-.3-5.33-.3-5.33V56.64s-.42-1.5-1.56-.63-3.67,4-5.5,5.42A29.2,29.2,0,0,0,144.66,66.6Z" transform="translate(-5.84 -3.49)"/><path class="cls-6" d="M166.87,83a13.2,13.2,0,0,0-.25,1.92,15.77,15.77,0,0,1-5.3,7.22l.54.79,1.61.19s2.61-.66,9.64,1.2l.6-.19a25,25,0,0,1,4.48-3.35,69.3,69.3,0,0,1,4.29-6.14c1.32-1.45-2-1.26-2-1.26A58.94,58.94,0,0,1,174.6,83C173.74,82.77,169,82.11,166.87,83Z" transform="translate(-5.84 -3.49)"/><path class="cls-6" d="M122.46,75.52c.82.16,3.23,2.23,3.23,2.23l.29-.46v-4l.85-2.46.86-5.1a30.67,30.67,0,0,1-4.84-6c-1.28-.16-2.92-1.77-4.76-2.53s-2,1.48-2,1.48c-.07,2.11-.56,3.06-.2,5.66a31.37,31.37,0,0,1-.26,6.83C116.71,73.22,122.46,75.52,122.46,75.52Z" transform="translate(-5.84 -3.49)"/><path class="cls-6" d="M95.56,91.45a12.08,12.08,0,0,0,3.72,3.4l7.51-2.34h3.33l.29-.45a49.48,49.48,0,0,1-6.29-9.3l-.32-.68c-3.85.77-10.68.23-10.68.23-1.09.32-2.66,1.25-2.82,2.18s1.35,2.92,1.83,3.66S94.15,89.33,95.56,91.45Z" transform="translate(-5.84 -3.49)"/><path class="cls-6" d="M98.61,122.47a42.81,42.81,0,0,0,5.22.58l3.71-4.47-.13-1.51,2.78-3.23v-.48l-.82-.18a34.1,34.1,0,0,1-9.84-1.46,80.92,80.92,0,0,1-6.87,5.66c-2.37,1.56-1.93,2.75-1.93,2.75a4.84,4.84,0,0,0,1.17,2.23C92.69,123,95.1,121.92,98.61,122.47Z" transform="translate(-5.84 -3.49)"/><path class="cls-6" d="M128,139.92c-.52-1.73-1.55-4.09-1.55-4.09.22-2.5-.88-7.92-.88-7.92l-.7.15a19,19,0,0,0-2.77,3l-7,4.64c.62,3.1-.19,9.88,0,11.76s2.35,1.54,4.49-.37a83.4,83.4,0,0,1,7.22-5.23Z" transform="translate(-5.84 -3.49)"/><path class="cls-6" d="M155,134.47a38,38,0,0,0-8-5.92l-.33.33a14.85,14.85,0,0,1,0,3.14,33.27,33.27,0,0,1-1.78,5.5l-.33,2.72s5.64,5.12,7.56,7,4,4.09,3.85,1.49.57-4.31.85-7.5a14,14,0,0,0-1.27-6.39Z" transform="translate(-5.84 -3.49)"/><path class="cls-6" d="M178.66,116.71c-1.06-2.09-5-5.57-5-5.57H173a65.83,65.83,0,0,0-11.33,2.46v.45a44,44,0,0,1,4.66,6.18l1.82,2.69c1.66-.12,6.82.34,9.7,0s4.2-.87,4.09-1.78S179.72,118.79,178.66,116.71Z" transform="translate(-5.84 -3.49)"/><path class="cls-6" d="M98.93,80.72a14,14,0,0,0,5.18-.16L102.88,76A6.55,6.55,0,0,0,99,75.58l-1.4.27v.91l.76,1.67Z" transform="translate(-5.84 -3.49)"/><path class="cls-6" d="M108.87,68.38A16.5,16.5,0,0,0,114,70.61a30,30,0,0,0,.19-5.28,12.16,12.16,0,0,1-4.94-1.63c-1-.6-.84.59-.84.59A32,32,0,0,1,108.87,68.38Z" transform="translate(-5.84 -3.49)"/><path class="cls-6" d="M128.49,64.6a19.68,19.68,0,0,0,2.65-3.94s-2.74-3.87-3-4.92-1.22-.43-1.28.51-.82,3.82-1.67,4.41A34.79,34.79,0,0,0,128.49,64.6Z" transform="translate(-5.84 -3.49)"/><path class="cls-6" d="M144.12,64.4a43.28,43.28,0,0,1,3.26-3s-.44-3.2-.52-5-1.36-1.7-2-.67-2.19,3-3,4l1.93,3.08Z" transform="translate(-5.84 -3.49)"/><path class="cls-6" d="M162.79,68.35s-.42-2.9.56-4.57c0,0,.51-.77,0-1.2a.83.83,0,0,0-1.25,0,17.82,17.82,0,0,1-3.42.72,7.49,7.49,0,0,1,0,2.93,6.44,6.44,0,0,0-.41,3.93A32.16,32.16,0,0,1,162.79,68.35Z" transform="translate(-5.84 -3.49)"/><path class="cls-6" d="M167.64,81a37.58,37.58,0,0,1,5.64.22,11.35,11.35,0,0,1,2.35-4.64,2.42,2.42,0,0,0,.28-1.7,20.44,20.44,0,0,1-5.64.83A53.78,53.78,0,0,0,167.64,81Z" transform="translate(-5.84 -3.49)"/><path class="cls-6" d="M175,95.2l.23.39a13.68,13.68,0,0,0,5.48,2.08,18,18,0,0,1,3-1.88c1.73-.85,1.22-2,.34-2.13s-4.32-.48-5.37-1.08A16.1,16.1,0,0,0,175,95.2Z" transform="translate(-5.84 -3.49)"/><path class="cls-6" d="M91.22,97.8l2.86-1.75a9.42,9.42,0,0,0,2.49-.72l.17-.48A6.43,6.43,0,0,1,95,93a10.4,10.4,0,0,0-2.14-2.29c-2.42,1.5-4,1.5-4.54,1.87s-.12,1.06-.12,1.06A31.29,31.29,0,0,1,91.22,97.8Z" transform="translate(-5.84 -3.49)"/><path class="cls-6" d="M92.71,115.39c1.05-1.07,4.77-4.3,4.77-4.3v-.44a11.33,11.33,0,0,1-.78-.86H94.38c-.52-.44-1.3-1-1.3-1a21.32,21.32,0,0,1-4.46,2.68c-.26.36.11,1.07.11,1.07A11.5,11.5,0,0,1,92.71,115.39Z" transform="translate(-5.84 -3.49)"/><path class="cls-6" d="M184.37,111.45a24.61,24.61,0,0,1-3.65-3.5c-2.32.69-5.25,1.92-5.25,1.92a22.28,22.28,0,0,1,3.41,4.33,12.32,12.32,0,0,1,3.53-1.29C183.45,112.93,185.85,112.42,184.37,111.45Z" transform="translate(-5.84 -3.49)"/><path class="cls-6" d="M103.23,124.41a31,31,0,0,1-5.45-.48c0,1.56-1.62,5.19-1.62,5.19a1.84,1.84,0,0,0,.76.95,13.21,13.21,0,0,0,4.65-.83A22.61,22.61,0,0,1,103.23,124.41Z" transform="translate(-5.84 -3.49)"/><path class="cls-6" d="M175.47,124.45a39.78,39.78,0,0,1-4,0,16.49,16.49,0,0,0-2.56,0s.65,2.4,1.57,5a3.14,3.14,0,0,1,2.48.5c1.57.86,1.9,1,2.51,1a1.25,1.25,0,0,0,.68-.74S175.12,126.31,175.47,124.45Z" transform="translate(-5.84 -3.49)"/><path class="cls-6" d="M107.09,137.52a17.67,17.67,0,0,1-.46,3.79c-.21.59.4,2.25,1.48,1.61a5.38,5.38,0,0,1,2.81-.61,11.6,11.6,0,0,0,2.89-1.16,41.2,41.2,0,0,0-.19-5.14A51,51,0,0,0,107.09,137.52Z" transform="translate(-5.84 -3.49)"/><path class="cls-6" d="M163.58,138.06a24.16,24.16,0,0,0-3.23-.93,14.38,14.38,0,0,0-2.24-.25s.45,2.6.74,5.26a12.75,12.75,0,0,1,3.85,2.18s1.41.26,1.7,0a2.08,2.08,0,0,0,.25-1.53C164.54,142.45,163.21,139.42,163.58,138.06Z" transform="translate(-5.84 -3.49)"/><path class="cls-6" d="M127.71,143.07l-4.38,3.24a12.61,12.61,0,0,1,1.53,4.83c.08.83.88,1,1.69.86s0-1.62,1.81-2.82a6.5,6.5,0,0,0,2.17-2l-2.29-4.81Z" transform="translate(-5.84 -3.49)"/><path class="cls-6" d="M143.21,144.79a32.46,32.46,0,0,1-1.55,3.58c1.34.7,3,2.75,3.53,3.18a1.24,1.24,0,0,0,1.77-.26c.37-.58-.36-1.51.22-3a24.86,24.86,0,0,0,.87-2.62l-4.32-3.6A11.44,11.44,0,0,0,143.21,144.79Z" transform="translate(-5.84 -3.49)"/><polygon class="cls-6" points="136.05 118.74 136.39 119.67 137.36 119.98 137.73 119.76 137.19 117.99 136.98 117.4 136.46 116.03 135.65 114.1 135.55 113.61 134.56 111.46 134.03 109.69 133.04 107.7 132.44 106.08 131.7 104.62 131.14 102.85 131.08 103.25 132.23 109.75 132.97 111.86 133.28 113.82 133.75 115.91 134.28 117.15 134.5 117.96 134.75 119.64 135.06 120.48 135.55 120.45 135.65 119.48 135.49 118.58 135.55 117.86 135.45 117.57 135.59 117.4 136.05 118.74"/><path class="cls-6" d="M136.16,121.25l.17,1.33s.27,1,.27,1.1a2.39,2.39,0,0,0,.22.4l.48,0,.17-.66v-.82c0-.09.06-.7.06-.7l.44-.5.28.61.57,1.22.42.78.44-.08v-.59l-.19-1,0-1.09-.45-.89-.21-1.2-.25-1.24-.23-1.59-.26-1.3-.48-1.35,0-.74-.51-1.9-.38-1.69-.36-2.44-.12-.34-.13.59v1.37l.17,1.9,0,1.31,0,1.18.21,1.16-.17,1v1.62l-.13,1.06.11,1-.11,1.35Z" transform="translate(-5.84 -3.49)"/><path class="cls-6" d="M135.6,109.6l.11-1.19,0-1.67-.29.68-.17.7-.25.95v1c0,.06-.32.82-.32.82l-.17,1.55-.36,1.2-.4,1.48-.11.85s-.06,1.14-.06,1.23-.3,1.2-.32,1.31-.28,1.16-.28,1.16-.06.83-.06.91a12.5,12.5,0,0,1-.21,1.42c-.06.13-.19,1.36-.19,1.36l.36.53.63-.24.3-.76,0-.89.23-.61.51.13,0,1.56.19,1,.49-.07.36-.78.1-1.29-.12-1.08v-1l-.07-1,.15-1.1,0-1,0-1.74.07-.76v-.76l-.07-1-.08-.86.15-1.25Z" transform="translate(-5.84 -3.49)"/><path class="cls-6" d="M130.64,122.79l.13.5.53,0,.42-.84.24-.62.22-.9.11-.93.2-1,.13-.75.31-1.24.15-1s.07-1.19.09-1.28.16-.79.16-.79l.42-1.08.11-1,.13-1.23.37-.8.07-1,.57-1.94-.22-.09-.11.34-.39.77-.27.7-.46.91-.38.86-.31.66-.17.88-.38,1-.35,1-.46.89-.38,1-.42,1-.28.42-.45.64s-.39,1.06-.46,1.13-.29.72-.4.9a1.91,1.91,0,0,0-.13.6c0,.06-.57,1.17-.66,1.28a5,5,0,0,0-.31.68l.35.26.42-.17a3.6,3.6,0,0,0,.58-.49c0-.06.48-.42.48-.42l.38-.72.48-.16s.07.46.07.53-.11.71-.11.71Z" transform="translate(-5.84 -3.49)"/><path class="cls-6" d="M126.54,121.1l-.05.79.2.52.59-.2.3-.91.46-.54.35-1,.57-1.18.59-1.28s.57-1.16.61-1.26.5-.86.5-.86l.39-1.16.52-1.24.47-1.08.37-1.08.37-.82.24-.88.62-1.24.52-1.06-.1-.27-.1.1-.2.32-.29.47-.35.39-.66.72-.47.71-.42.87-.25.66-.49.57-.86,1.18-.59.89-.37.59-.4.86L127.55,116s-.66,1.43-.74,1.58a4.45,4.45,0,0,1-.49.64c-.07.08-.72.86-.81.91a4.09,4.09,0,0,0-.47.64L124.5,121l.27.42.76-.37.59-.45.3-.66a6.75,6.75,0,0,1,.79-.57c.07,0,.07.12.07.12l0,.57Z" transform="translate(-5.84 -3.49)"/><path class="cls-6" d="M123.57,119l-.64.56,0,.56.41,0,.35-.39.46-.5.53-.31.42-.51.7-1,.62-.7.39-.64.33-.49.21-.5.72-.58.46-.89.41-.88,1.05-1.53.39-.71.38-.64.41-.74.52-.54.51-1.11.58-.5.52-.64v-.22l0-.28-.18.16-.17.24-.49.43-.54.68-.66.5-.72,1-.7.77-.58.37-.42.72-.53.43-.62.54-.48.43a6,6,0,0,0-.43.5c0,.06-.56.68-.56.68l-1.22,1-.84,1.08-1,.68-.51.56a7.1,7.1,0,0,1-.4.74l-.57.56s-.4.64-.42.7.31.29.37.33.4-.08.4-.08l.76-.58.62-.72a5.15,5.15,0,0,1,.64-.27l.17,0a4.44,4.44,0,0,1,.18.5.7.7,0,0,1-.12.41Z" transform="translate(-5.84 -3.49)"/><path class="cls-6" d="M144.8,119.43l.45.3.64.91.41.29.36.07.23-.09,0-.41a2.78,2.78,0,0,1-.25-.32c0-.07-.47-.93-.47-1a3.24,3.24,0,0,0-.21-.48l-.55-.84-.5-.73-.7-.68-.23-.61-.39-.89-.52-.69-.45-.72-.37-.82-1.14-1.28-.5-1.09-.79-.89-.46-.66-.57-.86-.68-1.12-.27-.45,0,.11,0,.39.54,1.27.35.66.34.89.52.82.48,1.27.54,1.28.28.86.36,1,.23.75.52.8,0,.7.47,1,.48.79.27.73.71,1.21.43.77.34.62.28-.21.11-.41-.25-.59-.25-.71.05-.59Z" transform="translate(-5.84 -3.49)"/><polygon class="cls-6" points="124.19 80.31 123.84 79.38 122.88 79.06 122.51 79.28 123.05 81.06 123.25 81.65 123.78 83.01 124.59 84.94 124.68 85.44 125.68 87.58 126.21 89.36 127.2 91.35 127.79 92.96 128.54 94.42 129.1 96.2 129.16 95.79 128.01 89.29 127.27 87.18 126.95 85.22 126.49 83.14 125.96 81.89 125.74 81.09 125.49 79.41 125.18 78.57 124.68 78.6 124.59 79.56 124.75 80.46 124.68 81.18 124.79 81.48 124.65 81.65 124.19 80.31"/><path class="cls-6" d="M135.79,97.55v1.37l-.13.59-.13-.34-.36-2.44L134.79,95l-.5-1.9,0-.73-.49-1.36-.25-1.3-.24-1.58L133,86.92l-.21-1.2-.44-.88,0-1.1-.19-1v-.59l.44-.08.43.78.57,1.22.27.61.44-.5s.06-.61.06-.7v-.82l.17-.65.49,0a2.29,2.29,0,0,1,.21.39s.07.31.14.58h0c.06.27.13.52.13.52l.17,1.33v1.16l-.1,1.35.05.55,0,.5-.12,1.06V91l-.17,1,.21,1.16,0,1.18,0,1.31Z" transform="translate(-5.84 -3.49)"/><path class="cls-6" d="M139.44,82.62a12.45,12.45,0,0,1-.2,1.36,12.73,12.73,0,0,0-.2,1.42c0,.08-.07.9-.07.9s-.26,1.07-.28,1.17-.31,1.23-.31,1.31-.07,1.23-.07,1.23l-.1.85-.41,1.48-.36,1.21-.16,1.54s-.32.76-.32.82v1l-.25,1-.17.7-.3.68,0-1.67.1-1.19-.14-.89.14-1.24-.08-.87-.06-1v-.76l.06-.76,0-1.74,0-1,.15-1.1-.06-1v-1L136.26,84l.11-1.29.36-.78.48-.06.19,1,0,1.56.44.12h.07l.24-.61,0-.89.29-.76.64-.24Z" transform="translate(-5.84 -3.49)"/><path class="cls-6" d="M141.29,83.24l-.13-.51-.53,0-.42.84-.25.62-.22.9-.11.93-.19,1-.14.75L139,89l-.15,1s-.07,1.19-.09,1.28-.15.79-.15.79l-.42,1.09-.11,1-.13,1.24-.38.79-.07,1-.57,1.94.22.09.11-.33.4-.78.26-.7.47-.91.37-.86.31-.66.18-.88.37-1,.35-1,.47-.88.37-1,.42-1,.29-.42.44-.64s.4-1.06.46-1.13.29-.72.4-.9a1.91,1.91,0,0,0,.13-.6c0-.06.58-1.16.66-1.28a5,5,0,0,0,.31-.68l-.35-.26-.42.17s-.57.42-.57.49-.49.42-.49.42l-.37.73-.49.15s-.06-.46-.06-.53.11-.71.11-.71Z" transform="translate(-5.84 -3.49)"/><path class="cls-6" d="M145.38,84.92l.05-.79-.19-.52-.6.2-.29.91-.47.55-.35,1L143,87.43l-.59,1.29L141.76,90c0,.1-.49.87-.49.87l-.4,1.15-.52,1.24-.46,1.08-.37,1.09-.37.81-.25.89-.62,1.23-.51,1.06.1.27.09-.1.2-.32.3-.47.34-.39.67-.72.47-.71.41-.86.25-.67.49-.57.87-1.18.59-.89.37-.59.39-.86L144.37,90l.74-1.58a5.31,5.31,0,0,1,.49-.64c.08-.07.72-.86.82-.91a4.09,4.09,0,0,0,.47-.64l.54-1.24-.27-.42-.77.37-.59.45-.29.66a7.72,7.72,0,0,1-.79.57c-.08,0-.08-.12-.08-.12l.05-.57Z" transform="translate(-5.84 -3.49)"/><path class="cls-6" d="M148.36,87l.64-.56,0-.56-.42,0-.35.39-.45.5-.54.31-.41.52-.7,1-.62.7-.4.64-.33.5-.2.49-.73.58-.45.89-.41.89-1.06,1.52-.39.71-.37.64-.41.74-.52.54-.52,1.11-.58.5-.51.64v.22l0,.28.17-.16.17-.24.5-.43.53-.68.66-.5.73-1,.7-.76.58-.38.41-.72.54-.43.62-.54.47-.43s.41-.44.44-.5.55-.68.55-.68l1.22-1,.85-1.08,1-.68.52-.56s.33-.68.39-.74l.58-.56s.39-.64.41-.7-.31-.29-.37-.33-.39.08-.39.08l-.77.58-.62.72a4.57,4.57,0,0,1-.64.27.76.76,0,0,1-.16,0,4.24,4.24,0,0,1-.19-.49.7.7,0,0,1,.13-.42Z" transform="translate(-5.84 -3.49)"/><path class="cls-6" d="M127.13,86.59l-.46-.3-.63-.91-.41-.29-.37-.07-.23.09,0,.41a2,2,0,0,1,.25.32c0,.07.48.93.48,1a3.32,3.32,0,0,0,.2.48l.55.84.5.73.71.68.22.62.39.88.52.69.46.72.36.82,1.14,1.28.5,1.09.8.89.45.66.57.86.69,1.12.27.45,0-.11,0-.39-.55-1.27-.34-.66-.34-.89-.53-.82L132,94.24,131.43,93l-.27-.86-.37-1-.22-.75-.53-.79,0-.71-.48-1-.48-.79-.27-.73-.71-1.21-.43-.77-.34-.61L127,84l-.12.41.25.59.25.71,0,.59Z" transform="translate(-5.84 -3.49)"/><polygon class="cls-6" points="109.97 105.8 109.66 106.76 109.88 107.13 111.65 106.59 112.24 106.39 113.61 105.86 115.54 105.05 116.04 104.96 118.18 103.96 119.95 103.43 121.94 102.44 123.56 101.85 125.02 101.1 126.79 100.54 126.39 100.48 119.89 101.63 117.78 102.38 115.82 102.69 113.73 103.15 112.49 103.68 111.68 103.9 110 104.15 109.17 104.46 109.2 104.96 110.16 105.05 111.06 104.89 111.78 104.96 112.07 104.85 112.24 104.99 110.91 105.45 109.97 105.8"/><path class="cls-6" d="M115.76,105.87l-.78.42.09.44h.59l1-.19,1.1,0,.88-.44,1.2-.21,1.25-.25,1.58-.23,1.31-.26,1.35-.48.73,0,1.9-.51,1.69-.38,2.45-.36.33-.12-.59-.13H130.5l-1.9.17-1.3,0-1.18,0-1.16.22-1-.17h-1.62l-1-.13-1.06.11-1.35-.11h-1.16l-1.33.17s-1,.27-1.09.27a2.07,2.07,0,0,0-.4.21l0,.49.65.17h.82l.7.06.51.44-.62.28Z" transform="translate(-5.84 -3.49)"/><path class="cls-6" d="M115.85,101.57l-1,.19.06.49.78.36,1.29.1,1.08-.13h1l1-.06,1.1.15,1,0,1.73,0,.76.07h.77l1-.07.87-.08,1.25.15.88-.15,1.19.1,1.67,0-.68-.29-.69-.17-1-.26h-1c-.07,0-.83-.31-.83-.31l-1.54-.17-1.21-.36-1.48-.41-.85-.1-1.23-.06c-.08,0-1.2-.3-1.31-.32l-1.16-.28-.91-.06a12.84,12.84,0,0,1-1.42-.21,12,12,0,0,0-1.35-.19l-.53.36.23.63.76.3.89,0,.61.23-.12.51Z" transform="translate(-5.84 -3.49)"/><path class="cls-6" d="M117,97.71l-.84,0-.51.14,0,.53.84.42.62.24.9.22.93.11,1,.2.75.13L122,100l1,.15s1.19.07,1.28.09l.8.16,1.08.42,1,.11,1.24.13.79.37,1,.07,1.94.57.09-.22-.33-.11-.78-.4-.7-.26-.91-.46-.86-.38-.66-.31-.88-.17-1-.38-1-.35-.88-.47-1-.37-1-.42-.42-.29-.64-.44a11.62,11.62,0,0,1-1.12-.46c-.07-.07-.73-.29-.91-.4a1.86,1.86,0,0,0-.59-.13c-.07,0-1.17-.57-1.28-.66a5.06,5.06,0,0,0-.69-.31l-.26.35.17.42s.42.57.49.57.42.49.42.49l.73.38.15.48-.53.07Z" transform="translate(-5.84 -3.49)"/><path class="cls-6" d="M119.45,94.33l-.57,0-1-.69-.79,0-.51.2.19.59.91.3.55.46,1,.35,1.19.57,1.28.59,1.25.61.87.5,1.16.39,1.23.52,1.08.47,1.09.37.81.37.89.24,1.23.62,1.06.52.27-.1-.1-.1-.32-.2-.47-.29-.39-.35-.72-.66L129.9,99l-.86-.42-.67-.25-.57-.49L126.62,97l-.89-.6-.59-.37-.86-.39L123,94.6l-1.58-.74a4.45,4.45,0,0,1-.64-.49c-.07-.08-.86-.72-.91-.82a4.69,4.69,0,0,0-.64-.46L118,91.54l-.42.28.37.76.44.59.67.3a6.75,6.75,0,0,1,.56.79C119.57,94.33,119.45,94.33,119.45,94.33Z" transform="translate(-5.84 -3.49)"/><path class="cls-6" d="M121.18,91.42a.71.71,0,0,1-.42-.12l-.78-.68-.56-.65-.56,0,0,.41.4.35.49.45.31.54.52.41,1,.71.7.62.64.39.5.33.49.21.58.72.89.45.89.42,1.53,1,.7.39.64.37.74.42.54.51,1.11.52.5.58.64.51h.22l.28,0-.16-.17-.24-.17-.43-.49-.68-.54-.5-.66-1-.72-.76-.71-.37-.57-.73-.42-.43-.53-.54-.62-.43-.48a6,6,0,0,0-.5-.43c-.06,0-.68-.56-.68-.56l-1-1.22-1.08-.85-.68-1-.56-.52s-.68-.33-.74-.39l-.56-.58s-.64-.39-.7-.41-.29.31-.33.37.08.4.08.4l.58.76.72.62a5.15,5.15,0,0,1,.27.64.76.76,0,0,1,0,.16A4.24,4.24,0,0,1,121.18,91.42Z" transform="translate(-5.84 -3.49)"/><path class="cls-6" d="M118.34,112.94l-.3.41-.07.36.09.23.41,0a2.78,2.78,0,0,1,.32-.25c.07,0,.93-.48,1-.48a3.32,3.32,0,0,0,.48-.2l.84-.55.73-.5.68-.7.62-.23.89-.39.68-.52.73-.46.82-.36,1.27-1.14,1.09-.5.89-.8.66-.45.87-.57,1.11-.68.46-.28-.12,0-.39,0-1.27.54-.66.34-.89.35-.82.52-1.27.48-1.28.54-.86.28-1,.36-.76.23-.79.52-.71,0-1,.48-.8.48-.73.27-1.21.71-.77.43-.61.34.2.28.41.11.59-.25.71-.25.59,0,.34.25-.29.46Z" transform="translate(-5.84 -3.49)"/><polygon class="cls-6" points="150.27 93.25 150.58 92.28 150.36 91.91 148.59 92.45 148 92.66 146.63 93.19 144.7 93.99 144.2 94.09 142.06 95.08 140.28 95.61 138.3 96.61 136.68 97.2 135.22 97.94 133.44 98.5 133.85 98.56 140.35 97.41 142.46 96.67 144.42 96.36 146.5 95.89 147.75 95.36 148.56 95.14 150.23 94.9 151.07 94.58 151.04 94.09 150.08 93.99 149.18 94.15 148.46 94.09 148.16 94.2 148 94.06 149.33 93.59 150.27 93.25"/><path class="cls-6" d="M156.16,100.15l.78-.42-.08-.44h-.59l-1,.19-1.1,0-.89.44-1.2.21-1.24.25-1.59.24-1.3.25-1.35.48-.74,0-1.9.5-1.69.38-2.44.36-.34.13.59.12h1.37l1.9-.17,1.31,0,1.18,0,1.16-.21,1,.16h1.62l1.06.13,1.05-.1,1.35.1h1.16l1.33-.17s1-.27,1.1-.27a2.43,2.43,0,0,0,.4-.21l0-.49-.66-.17h-.82l-.7-.06-.5-.44.61-.28Z" transform="translate(-5.84 -3.49)"/><path class="cls-6" d="M156.07,104.45l1-.19-.06-.49-.79-.35-1.29-.11-1.08.13h-1l-1,.06-1.11-.15-1,0-1.74,0-.76-.07h-.76l-1,.07-.87.08-1.25-.15-.89.15-1.18-.1-1.68,0,.68.29.7.17,1,.26h1c.06,0,.82.32.82.32l1.55.16,1.2.36,1.49.41.84.1,1.23.07c.08,0,1.21.29,1.31.31l1.17.28.91.06a12.67,12.67,0,0,1,1.41.21,12.18,12.18,0,0,0,1.36.19l.53-.36-.24-.63-.76-.3-.89,0-.61-.23.13-.51Z" transform="translate(-5.84 -3.49)"/><path class="cls-6" d="M154.9,108.31l.84,0,.5-.14,0-.53-.84-.41-.61-.25-.91-.22-.92-.11-1-.2-.75-.13-1.24-.31-1-.15s-1.19-.07-1.28-.09l-.79-.15-1.08-.42-1-.11-1.23-.14-.8-.37-1-.07-2-.57-.08.22.33.11.77.4.71.26.9.46.86.38.66.31.88.18,1,.37,1,.35.89.47,1,.37,1,.42.42.29.64.44s1.06.4,1.13.46.73.29.9.4a1.91,1.91,0,0,0,.6.13c.06,0,1.17.57,1.28.66a5,5,0,0,0,.68.31l.27-.35-.18-.42s-.42-.57-.49-.57-.41-.49-.41-.49l-.73-.37-.16-.49.53-.07C154.26,108.2,154.9,108.31,154.9,108.31Z" transform="translate(-5.84 -3.49)"/><path class="cls-6" d="M152.48,111.69l.56,0,1,.69.79,0,.52-.2-.2-.59-.91-.29-.54-.47-1-.35-1.18-.56-1.28-.6-1.26-.61-.86-.49-1.16-.4-1.23-.52-1.09-.47-1.08-.36-.82-.37-.88-.25-1.24-.62-1.06-.51-.27.09.1.1.32.2.47.3.39.34.72.67.71.46.87.42.66.25.57.49,1.18.87.89.59.59.37.86.39,1.34,1.06,1.57.74a4.45,4.45,0,0,1,.64.49c.08.08.87.72.92.82a3.56,3.56,0,0,0,.64.46l1.23.55.42-.27-.37-.77-.45-.59-.66-.3a7.53,7.53,0,0,1-.57-.78C152.35,111.69,152.48,111.69,152.48,111.69Z" transform="translate(-5.84 -3.49)"/><path class="cls-6" d="M150.75,114.6a.7.7,0,0,1,.41.12l.79.69.55.64.56,0,0-.42-.39-.35-.5-.45-.31-.54-.51-.41-1-.71-.71-.62-.64-.39-.49-.33-.5-.21-.58-.72-.88-.45-.89-.42-1.53-1-.7-.39-.64-.37-.75-.42-.53-.51-1.12-.52-.5-.58-.64-.51h-.21l-.29,0,.16.17.24.17.43.49.69.54.49.66,1,.72.77.71.37.58.72.41.44.54.53.62.44.47a5.75,5.75,0,0,0,.49.43c.06,0,.68.56.68.56l1,1.22,1.07.85.68,1,.56.52s.68.33.74.39l.56.58s.64.39.7.41.29-.31.33-.37-.08-.39-.08-.39l-.58-.77-.72-.62a5.15,5.15,0,0,1-.27-.64.76.76,0,0,1,0-.16A3.91,3.91,0,0,1,150.75,114.6Z" transform="translate(-5.84 -3.49)"/><path class="cls-6" d="M153.59,93.08l.29-.41.07-.36-.09-.23-.41,0a2,2,0,0,1-.32.25c-.06,0-.93.48-1,.48a3.32,3.32,0,0,0-.48.2l-.84.55-.73.5-.68.7-.61.23-.89.39-.68.52-.73.46-.82.36-1.28,1.14-1.09.5-.89.8-.66.45-.86.57-1.12.68-.45.28.11,0,.39,0,1.27-.55.66-.34.89-.34.82-.53,1.28-.48,1.27-.54.86-.27,1-.37.75-.23.8-.52.7,0,1-.48.79-.48.73-.27,1.21-.71.77-.43.62-.34-.21-.27-.41-.12-.59.25-.7.25-.6,0-.34-.25.3-.46Z" transform="translate(-5.84 -3.49)"/><path class="cls-6" d="M150.88,90.29l.47-.57.59-.69.09-.33-.29-.43-.45,0-.67.59s-.65.64-.67.7-.65.93-.65.93l-1.19.82-.73.63-.83,1-.68.53-.81.81-.29.55-.67.57-.79.53-.43.82-.59.79-.8.49-.67.71-.73.49-.51.65-.39.35-.16.2.24,0,1.18-.58s.86-.5.92-.52.57-.49.65-.53l.78-.43.83-.67.92-.64.63-.65L146,96l.69-.55,1.16-.75.92-.61.73-.47,1-.49.41-.61c0-.06.95-.65.95-.65l.61-.61L153,91l.06-.53-.14-.34-.69-.06-.71.91-.86.53-.65-.38.24-.37A7.11,7.11,0,0,0,150.88,90.29Z" transform="translate(-5.84 -3.49)"/><path class="cls-6" d="M123.1,88l-.71-.56-.27-.51-.36-.15-.47.2.15.56.24.68.95.86.71.83.56.78,1.15.78.46.87,1.39,1.25.61.73.93.88.44.39.85.78.52.46.82.88.86.64.66,1,.56.56.32-.12-.54-.85-.59-1.08a7,7,0,0,1-.51-.75c0-.08-.76-.81-.83-1s-.66-.9-.66-.9l-.58-.82-.78-.93-.37-1.15-.78-1-1.15-1.51L126,89a6.66,6.66,0,0,1-.63-.78c0-.07-.25-.75-.25-.75l-.61-.93-.48-.49-.56-.32L123,86l0,.56.54.54.29.7-.46.37Z" transform="translate(-5.84 -3.49)"/><path class="cls-6" d="M148.42,117.6l1.13.91.25.37.37-.14.15-.42a4.79,4.79,0,0,1-.33-.41c0-.08-.48-.64-.48-.64l-.6-.62-.53-.74-.89-.71-1-.8-.58-.74-.39-.54-.62-.64-1.26-1.1-1.06-1-.49-.74-.89-.66-.64-.66-.56-.71-.72-.78-.37-.46-.48-.24.6,1,.56.7.47.95.54.79.5.64.78,1.07.35.75.7,1.07.75,1,.6.64.43.91.52.76,1.11,1.45.68,1.18.75.74.68.12s.23-.18.25-.24.06-.38.06-.38a3.65,3.65,0,0,0-.44-.45c-.06,0-.47-.27-.51-.41l-.13-.46v-.41Z" transform="translate(-5.84 -3.49)"/><path class="cls-6" d="M120.49,116.28c-.08,0-.56.45-.56.45l-.06.46.45.15.86-.46.41-.49.84-.67.75-.52.73-.79.91-.73,1.44-1.38.63-.67.62-.62.73-.6.52-1,.9-.6.75-1.1,1-.71,1.09-1,.28-.52-.45.24-.54.47-.81.41-.52.49-1,.48-.22.34-.73.37-.62.38-.58.48-1,.6-.78.64-.73.46-.64.43-1.14.58-.67.52L122,113l-.78.56s-1.24.64-1.35.66-.71.28-.71.28l-.35.58-.23.35.49.21.5,0,.6-.32.75-.37.56-.06a1.84,1.84,0,0,1,.2.4,1.82,1.82,0,0,1-.18.37Z" transform="translate(-5.84 -3.49)"/></g></svg>